<?xml version="1.0" encoding="utf-8"?>
<!-- Generator: Adobe Illustrator 15.0.2, SVG Export Plug-In . SVG Version: 6.00 Build 0)  -->
<!DOCTYPE svg PUBLIC "-//W3C//DTD SVG 1.1//EN" "http://www.w3.org/Graphics/SVG/1.1/DTD/svg11.dtd">
<svg version="1.1" id="Layer_1" xmlns="http://www.w3.org/2000/svg" xmlns:xlink="http://www.w3.org/1999/xlink" x="0px" y="0px"
	 width="242.426px" height="91.471px" viewBox="4.58 4.042 242.426 91.471" enable-background="new 4.58 4.042 242.426 91.471"
	 xml:space="preserve">
<g id="Logo">
	<path fill="#552988" d="M4.989,33.935c-0.125-3.15-0.26-6.364-0.409-9.639c1.191,0.1,2.394,0.186,3.61,0.261
		c1.215,0.074,2.419,0.112,3.609,0.112c0.597,0,1.314-0.024,2.158-0.074c0.844-0.048,1.701-0.086,2.568-0.113
		c0.868-0.024,1.7-0.061,2.494-0.111c0.793-0.048,1.463-0.075,2.01-0.075c0.745,0,1.663,0.027,2.753,0.075
		c1.092,0.051,2.245,0.2,3.462,0.448c1.215,0.248,2.418,0.621,3.609,1.115c1.191,0.499,2.271,1.217,3.239,2.16
		c0.968,0.943,1.749,2.122,2.344,3.535c0.597,1.414,0.894,3.165,0.894,5.248c0,3.276-0.707,5.932-2.121,7.964
		c-1.414,2.036-3.151,3.624-5.209,4.764c-2.061,1.144-4.244,1.912-6.55,2.308c-2.308,0.398-4.355,0.596-6.142,0.596
		c-1.142,0-2.184-0.012-3.126-0.036c-0.944-0.026-1.911-0.089-2.902-0.188v4.096c0,3.273,0.061,6.5,0.186,9.676
		c0.124,3.176,0.26,6.303,0.409,9.379c-1.143-0.102-2.357-0.148-3.647-0.148c-1.292,0-2.506,0.047-3.648,0.148
		c0.149-3.076,0.285-6.203,0.409-9.379c0.124-3.176,0.186-6.402,0.186-9.676V43.574C5.175,40.299,5.113,37.087,4.989,33.935z
		 M16.563,49.752c1.537,0,3.126-0.174,4.764-0.521c1.638-0.346,3.137-0.979,4.502-1.897c1.365-0.918,2.482-2.183,3.351-3.796
		c0.867-1.612,1.302-3.684,1.302-6.216c0-2.133-0.298-3.872-0.893-5.21c-0.596-1.341-1.428-2.382-2.493-3.125
		c-1.068-0.745-2.371-1.253-3.909-1.527c-1.538-0.272-3.275-0.409-5.209-0.409h-6.699v22.106
		C12.966,49.555,14.727,49.752,16.563,49.752z"/>
	<path fill="#552988" d="M126.245,73.683c-0.968,0.474-2.135,0.894-3.5,1.267c-1.365,0.375-2.893,0.707-4.578,1.006
		c-1.687,0.297-3.449,0.446-5.284,0.446c-3.92,0-7.544-0.562-10.866-1.676c-3.326-1.117-6.192-2.815-8.6-5.099
		c-2.406-2.283-4.291-5.073-5.656-8.375c-1.365-3.299-2.047-7.058-2.047-11.276c0-4.217,0.682-7.976,2.047-11.277
		c1.365-3.299,3.275-6.09,5.732-8.374c2.457-2.282,5.396-4.02,8.82-5.21c3.424-1.191,7.193-1.787,11.314-1.787
		c3.275,0,6.264,0.335,8.97,1.004c2.704,0.669,5.099,1.477,7.183,2.419c-0.396,0.696-0.721,1.638-0.969,2.828
		c-0.248,1.191-0.445,2.185-0.594,2.978l-0.447,0.149c-0.496-0.595-1.189-1.266-2.084-2.01c-0.893-0.745-1.936-1.462-3.127-2.158
		c-1.191-0.694-2.531-1.276-4.021-1.75c-1.487-0.47-3.125-0.707-4.911-0.707c-2.929,0-5.646,0.474-8.15,1.414
		c-2.508,0.945-4.689,2.396-6.551,4.355c-1.861,1.962-3.312,4.442-4.354,7.444c-1.042,3.003-1.562,6.563-1.562,10.682
		c0,4.12,0.521,7.679,1.562,10.683c1.042,3.002,2.493,5.482,4.354,7.442c1.861,1.961,4.043,3.412,6.551,4.354
		c2.504,0.941,5.222,1.412,8.15,1.412c1.786,0,3.434-0.223,4.949-0.668c1.513-0.447,2.903-0.979,4.168-1.602
		c1.266-0.619,2.407-1.29,3.424-2.01c1.018-0.719,1.873-1.352,2.567-1.896l0.3,0.297l-0.67,4.393
		C127.918,72.777,127.211,73.211,126.245,73.683z"/>
	<path fill="#552988" d="M139.342,33.935c-0.123-3.15-0.258-6.364-0.408-9.639c0.645,0.1,1.266,0.186,1.861,0.261
		c0.596,0.074,1.19,0.112,1.787,0.112c0.596,0,1.19-0.038,1.785-0.112c0.596-0.075,1.215-0.161,1.86-0.261
		c-0.147,3.275-0.285,6.489-0.408,9.639c-0.125,3.152-0.188,6.364-0.188,9.64v12.804c0,3.273,0.062,6.5,0.188,9.676
		c0.123,3.176,0.261,6.303,0.408,9.379c-1.142-0.102-2.356-0.148-3.646-0.148c-1.291,0-2.508,0.047-3.648,0.148
		c0.15-3.076,0.285-6.203,0.408-9.379c0.125-3.176,0.188-6.402,0.188-9.676V43.574C139.53,40.299,139.467,37.087,139.342,33.935z"/>
	<path fill="#552988" d="M158.633,33.935c-0.123-3.15-0.26-6.364-0.408-9.639c1.438,0.1,2.852,0.186,4.242,0.261
		c1.389,0.074,2.803,0.112,4.242,0.112c1.438,0,2.852-0.062,4.244-0.187c1.387-0.122,2.803-0.186,4.241-0.186
		c2.084,0,4.068,0.199,5.953,0.597c1.886,0.397,3.537,1.055,4.951,1.971c1.414,0.919,2.53,2.123,3.351,3.609
		c0.817,1.49,1.229,3.351,1.229,5.585c0,2.381-0.533,4.428-1.602,6.141c-1.066,1.71-2.369,3.126-3.908,4.242
		c-1.537,1.116-3.189,1.985-4.949,2.605c-1.762,0.621-3.361,1.031-4.801,1.228c0.598,0.745,1.414,1.787,2.457,3.127
		c1.041,1.34,2.207,2.816,3.496,4.428c1.293,1.614,2.633,3.301,4.021,5.062c1.39,1.762,2.729,3.452,4.021,5.062
		c1.291,1.612,2.506,3.09,3.646,4.432c1.142,1.338,2.06,2.357,2.754,3.051c-0.744-0.102-1.487-0.148-2.231-0.148s-1.488,0-2.232,0
		c-0.695,0-1.414,0-2.158,0c-0.746,0-1.465,0.047-2.16,0.148c-0.742-1.043-1.873-2.605-3.387-4.689
		c-1.514-2.082-3.189-4.316-5.025-6.699c-1.834-2.381-3.709-4.75-5.617-7.108c-1.91-2.354-3.66-4.354-5.248-5.992h-2.83v5.435
		c0,3.274,0.062,6.502,0.188,9.677c0.123,3.176,0.261,6.303,0.408,9.379c-1.142-0.103-2.356-0.147-3.646-0.147
		c-1.291,0-2.508,0.047-3.646,0.147c0.148-3.076,0.285-6.203,0.408-9.379c0.123-3.175,0.186-6.402,0.186-9.677V43.574
		C158.819,40.299,158.756,37.087,158.633,33.935z M167.194,48.116c0.82,0.049,1.723,0.074,2.717,0.074
		c1.537,0,3.137-0.172,4.801-0.521c1.662-0.346,3.189-0.954,4.578-1.824c1.39-0.867,2.543-2.034,3.461-3.498
		c0.918-1.463,1.377-3.312,1.377-5.546c0-1.934-0.36-3.535-1.078-4.8c-0.721-1.266-1.651-2.271-2.793-3.014
		c-1.141-0.745-2.381-1.253-3.721-1.527c-1.34-0.272-2.656-0.409-3.945-0.409c-1.737,0-3.176,0.037-4.315,0.111
		c-1.144,0.075-2.11,0.163-2.903,0.261c-0.101,2.729-0.199,5.434-0.297,8.113c-0.101,2.679-0.15,5.359-0.15,8.039v4.244
		C165.618,47.966,166.375,48.066,167.194,48.116z"/>
	
		<linearGradient id="SVGID_1_" gradientUnits="userSpaceOnUse" x1="58.3901" y1="58.5229" x2="223.9467" y2="58.5229" gradientTransform="matrix(1 0 0 -1 0 98.333)">
		<stop  offset="0" style="stop-color:#939598"/>
		<stop  offset="0.5076" style="stop-color:#FFFFFF"/>
		<stop  offset="1" style="stop-color:#808080"/>
	</linearGradient>
	<path fill="url(#SVGID_1_)" d="M246.278,74.917C129.592-84.938,36.643,75.579,36.643,75.579s94.395-144,209.635-0.652V74.917z"/>
	<path fill="#552988" d="M81.061,70.222c-1.018-2.281-2.158-4.875-3.423-7.779c-1.266-2.901-2.618-6.04-4.057-9.416
		c-1.44-3.374-2.88-6.773-4.317-10.197c-1.439-3.425-2.855-6.812-4.242-10.161c-1.39-3.35-2.68-6.463-3.871-9.341h-1.414
		c-3.871,8.883-7.719,17.616-11.537,26.201c-3.822,8.587-7.742,17.22-11.762,25.904c0.844-0.103,1.762-0.147,2.754-0.147
		c0.992,0,1.91,0.047,2.755,0.147c0.644-2.281,1.61-5.175,2.902-8.673c1.231-3.34,2.603-6.854,4.106-10.532h-0.037l1.9-4.503
		l7.875-18.348l8.262,18.907l1.372,4.238h-0.005c0.553,1.396,1.136,2.84,1.76,4.357c0.744,1.812,1.477,3.6,2.196,5.361
		c0.718,1.762,1.378,3.448,1.972,5.061c0.596,1.613,1.068,2.99,1.415,4.132c0.694-0.103,1.352-0.147,1.973-0.147
		c0.62,0,1.276,0,1.972,0c0.694,0,1.352,0,1.974,0c0.618,0,1.276,0.047,1.973,0.147C82.911,74.245,82.079,72.504,81.061,70.222z"/>
	<path fill="#552988" d="M244.514,70.222c-1.018-2.281-2.158-4.875-3.424-7.779c-1.266-2.901-2.617-6.04-4.057-9.416
		c-1.439-3.374-2.88-6.773-4.318-10.197c-1.439-3.425-2.854-6.812-4.242-10.161c-1.391-3.35-2.68-6.463-3.869-9.341h-1.416
		c-3.869,8.883-7.717,17.616-11.537,26.201c-3.822,8.587-7.74,17.22-11.762,25.904c0.846-0.103,1.762-0.147,2.756-0.147
		c0.992,0,1.91,0.047,2.754,0.147c0.645-2.281,1.611-5.175,2.902-8.673c1.229-3.34,2.602-6.854,4.104-10.532h-0.034l1.899-4.503
		l7.875-18.348l8.26,18.907l1.373,4.238h-0.006c0.556,1.396,1.136,2.84,1.761,4.357c0.743,1.812,1.477,3.6,2.196,5.361
		c0.717,1.762,1.377,3.448,1.972,5.061c0.598,1.613,1.067,2.99,1.416,4.132c0.692-0.103,1.352-0.147,1.973-0.147s1.277,0,1.973,0
		c0.693,0,1.35,0,1.973,0c0.619,0,1.275,0.047,1.971,0.147C246.362,74.245,245.53,72.504,244.514,70.222z"/>
	<path fill="#808080" d="M4.76,86.892C4.745,86.398,4.721,85.9,4.69,85.4c0.132,0.017,0.273,0.029,0.427,0.039
		c0.153,0.015,0.327,0.019,0.519,0.019c0.27,0,0.548-0.008,0.835-0.027c0.289-0.02,0.572-0.03,0.848-0.03
		c0.546,0,0.973,0.039,1.28,0.121c0.308,0.08,0.549,0.196,0.725,0.353c0.246,0.201,0.428,0.422,0.543,0.668
		c0.115,0.246,0.173,0.543,0.173,0.889c0,0.438-0.073,0.814-0.219,1.129c-0.146,0.316-0.351,0.572-0.617,0.768
		c-0.266,0.197-0.578,0.34-0.94,0.434c-0.359,0.093-0.756,0.14-1.187,0.14H6.488c0,0.574,0.006,1.149,0.018,1.724
		c0.012,0.574,0.037,1.141,0.075,1.701c-0.131-0.017-0.273-0.023-0.427-0.023c-0.154,0-0.327,0-0.518,0c-0.192,0-0.365,0-0.519,0
		c-0.154,0-0.295,0.008-0.427,0.023c0.031-0.478,0.055-0.964,0.07-1.459c0.015-0.496,0.023-1.062,0.023-1.701v-1.568
		C4.783,87.958,4.774,87.388,4.76,86.892z M8.121,86.875c-0.065-0.199-0.154-0.357-0.266-0.478
		c-0.111-0.121-0.242-0.207-0.392-0.263c-0.15-0.053-0.305-0.079-0.467-0.079H6.73c-0.039,0-0.078,0-0.116,0
		c-0.038,0-0.072,0.004-0.103,0.012c-0.007,0.554-0.013,1.099-0.017,1.632c-0.004,0.534-0.006,1.071-0.006,1.608
		c0.193,0,0.391-0.021,0.594-0.058c0.205-0.039,0.39-0.117,0.559-0.237c0.169-0.117,0.308-0.289,0.416-0.513
		c0.108-0.223,0.162-0.52,0.162-0.889C8.219,87.323,8.186,87.077,8.121,86.875z"/>
	<path fill="#808080" d="M21.399,89.476c-0.293-0.013-0.586-0.019-0.878-0.019s-0.584,0.004-0.876,0.012
		c-0.292,0.009-0.584,0.019-0.876,0.035v0.656c0,0.639,0.007,1.205,0.023,1.701c0.015,0.496,0.039,0.982,0.068,1.459
		c-0.13-0.016-0.272-0.023-0.426-0.023c-0.154,0-0.325,0-0.518,0s-0.366,0-0.52,0s-0.297,0.009-0.425,0.023
		c0.03-0.477,0.052-0.963,0.069-1.459c0.015-0.496,0.022-1.062,0.022-1.701v-1.568c0-0.637-0.007-1.204-0.022-1.7
		c-0.017-0.494-0.039-0.992-0.069-1.492c0.128,0.017,0.272,0.029,0.425,0.039c0.153,0.015,0.327,0.019,0.52,0.019
		s0.364-0.004,0.518-0.019c0.154-0.01,0.296-0.022,0.426-0.039c-0.038,0.5-0.063,0.994-0.074,1.481
		c-0.012,0.488-0.018,1.052-0.018,1.688c0.2,0.009,0.441,0.017,0.722,0.019c0.281,0.004,0.627,0.006,1.043,0.006
		c0.415,0,0.753-0.002,1.013-0.006c0.263-0.002,0.505-0.01,0.728-0.019c0-0.637-0.007-1.198-0.022-1.688
		c-0.015-0.488-0.039-0.981-0.07-1.481c0.131,0.017,0.273,0.029,0.427,0.039c0.155,0.015,0.326,0.019,0.519,0.019
		s0.366-0.004,0.519-0.019c0.154-0.01,0.297-0.022,0.427-0.039c-0.031,0.5-0.055,0.998-0.069,1.492
		c-0.015,0.496-0.022,1.063-0.022,1.7v1.568c0,0.639,0.007,1.205,0.022,1.701c0.015,0.496,0.039,0.982,0.069,1.459
		c-0.13-0.016-0.273-0.023-0.427-0.023c-0.153,0-0.326,0-0.519,0c-0.192,0-0.364,0-0.519,0c-0.154,0-0.296,0.009-0.427,0.023
		c0.031-0.477,0.055-0.963,0.07-1.459s0.022-1.062,0.022-1.701v-0.656C21.982,89.499,21.691,89.488,21.399,89.476z"/>
	<path fill="#808080" d="M38.303,93.323c-0.185-0.017-0.359-0.023-0.525-0.023c-0.165,0-0.328,0-0.489,0c-0.162,0-0.324,0-0.491,0
		c-0.166,0-0.327,0.008-0.488,0.023c-0.125-0.378-0.252-0.763-0.382-1.154c-0.131-0.392-0.271-0.783-0.415-1.176
		c-0.245-0.009-0.492-0.013-0.737-0.017c-0.247-0.007-0.493-0.009-0.738-0.009c-0.2,0-0.399,0.002-0.6,0.009
		c-0.2,0.004-0.399,0.008-0.6,0.017c-0.153,0.393-0.295,0.784-0.426,1.176c-0.13,0.393-0.25,0.776-0.357,1.154
		c-0.091-0.017-0.183-0.023-0.271-0.023c-0.088,0-0.179,0-0.271,0c-0.092,0-0.184,0-0.277,0c-0.092,0-0.192,0.008-0.299,0.023
		c0.091-0.201,0.215-0.479,0.368-0.83c0.154-0.354,0.323-0.755,0.508-1.199c0.185-0.445,0.382-0.926,0.593-1.438
		c0.212-0.511,0.423-1.024,0.635-1.549c0.211-0.522,0.418-1.039,0.623-1.548c0.203-0.506,0.389-0.979,0.559-1.418
		c0.076,0.017,0.15,0.031,0.219,0.041c0.069,0.015,0.143,0.019,0.219,0.019c0.078,0,0.15-0.004,0.22-0.019
		c0.069-0.01,0.142-0.024,0.219-0.041c0.247,0.654,0.51,1.354,0.789,2.101c0.28,0.744,0.563,1.478,0.849,2.197
		c0.283,0.719,0.561,1.399,0.831,2.047C37.834,92.331,38.081,92.875,38.303,93.323z M34.221,87.566
		c-0.201,0.461-0.389,0.918-0.564,1.367c-0.178,0.45-0.352,0.909-0.52,1.377h2.111c-0.17-0.468-0.339-0.927-0.502-1.377
		C34.58,88.484,34.407,88.027,34.221,87.566z"/>
	<path fill="#808080" d="M46.963,89.689v0.474c0,0.639,0.006,1.205,0.022,1.7c0.016,0.496,0.038,0.981,0.069,1.46
		c-0.131-0.017-0.273-0.023-0.426-0.023c-0.154,0-0.328,0-0.52,0s-0.365,0-0.52,0c-0.153,0-0.296,0.008-0.426,0.023
		c0.029-0.479,0.053-0.964,0.068-1.46c0.015-0.495,0.023-1.062,0.023-1.7v-1.568c0-0.637-0.008-1.205-0.023-1.701
		c-0.016-0.494-0.039-0.992-0.068-1.492c0.13,0.016,0.272,0.029,0.426,0.039c0.154,0.014,0.328,0.018,0.52,0.018
		c0.207,0,0.443-0.008,0.708-0.026c0.266-0.021,0.595-0.029,0.986-0.029c0.292,0,0.543,0.009,0.751,0.022
		c0.207,0.015,0.385,0.037,0.535,0.068s0.281,0.07,0.393,0.121s0.217,0.109,0.316,0.178c0.231,0.17,0.414,0.379,0.547,0.629
		c0.136,0.25,0.203,0.55,0.203,0.896c0,0.562-0.154,1.021-0.462,1.373s-0.749,0.603-1.325,0.75c0.369,0.651,0.764,1.304,1.188,1.953
		c0.422,0.647,0.846,1.293,1.268,1.933c-0.176-0.017-0.349-0.023-0.518-0.023c-0.17,0-0.344,0-0.519,0c-0.179,0-0.353,0-0.525,0
		c-0.172,0-0.349,0.008-0.524,0.023l-2.065-3.634h-0.102V89.689z M48.681,86.758c-0.069-0.198-0.175-0.352-0.317-0.454
		c-0.142-0.103-0.327-0.171-0.555-0.201c-0.226-0.028-0.496-0.047-0.812-0.047c-0.022,1.047-0.034,2.092-0.034,3.137
		c0.046,0.009,0.09,0.015,0.133,0.019c0.041,0.004,0.081,0.006,0.12,0.006c0.507,0,0.896-0.137,1.165-0.41
		c0.268-0.271,0.402-0.686,0.402-1.24C48.784,87.23,48.75,86.959,48.681,86.758z"/>
	<path fill="#808080" d="M58.713,90.738c-0.062,0.861-0.123,1.724-0.186,2.585c-0.092-0.017-0.184-0.023-0.275-0.023
		s-0.182,0-0.266,0c-0.092,0-0.182,0-0.271,0c-0.088,0-0.179,0.008-0.271,0.023c0.246-1.322,0.464-2.64,0.656-3.945
		c0.194-1.305,0.37-2.631,0.53-3.978c0.086,0.017,0.165,0.029,0.238,0.039c0.072,0.015,0.152,0.019,0.235,0.019
		c0.068,0,0.143-0.004,0.218-0.019c0.078-0.01,0.159-0.022,0.242-0.039c0.209,0.461,0.427,0.931,0.654,1.406
		c0.226,0.478,0.451,0.95,0.678,1.424c0.229,0.476,0.455,0.938,0.682,1.392c0.228,0.453,0.443,0.883,0.652,1.289
		c0.459-0.859,0.92-1.761,1.377-2.701c0.458-0.943,0.893-1.879,1.309-2.81c0.192,0.037,0.357,0.058,0.496,0.058
		c0.131,0,0.292-0.021,0.484-0.058c0.078,0.66,0.159,1.371,0.248,2.134c0.088,0.76,0.174,1.506,0.258,2.231
		c0.086,0.728,0.17,1.403,0.255,2.034c0.085,0.63,0.161,1.138,0.23,1.521c-0.153-0.016-0.31-0.023-0.468-0.023
		c-0.156,0-0.312,0-0.467,0c-0.155,0-0.311,0-0.472,0c-0.163,0-0.323,0.009-0.484,0.023c-0.038-0.791-0.103-1.648-0.19-2.572
		c-0.089-0.922-0.178-1.838-0.271-2.744h-0.021c-0.439,0.906-0.87,1.802-1.292,2.677c-0.425,0.875-0.843,1.756-1.257,2.642
		c-0.039-0.009-0.076-0.015-0.109-0.019c-0.035-0.005-0.071-0.007-0.109-0.007c-0.039,0-0.075,0.002-0.111,0.007
		c-0.033,0.004-0.07,0.01-0.109,0.019c-0.414-0.861-0.827-1.724-1.238-2.584c-0.412-0.861-0.837-1.732-1.275-2.617H58.99
		C58.868,89.004,58.775,89.875,58.713,90.738z"/>
	<path fill="#808080" d="M80.588,93.323c-0.186-0.017-0.359-0.023-0.525-0.023c-0.164,0-0.328,0-0.49,0c-0.16,0-0.324,0-0.49,0
		c-0.165,0-0.328,0.008-0.49,0.023c-0.123-0.378-0.249-0.763-0.38-1.154c-0.131-0.392-0.271-0.783-0.415-1.176
		c-0.246-0.009-0.492-0.013-0.737-0.017c-0.247-0.007-0.493-0.009-0.739-0.009c-0.2,0-0.399,0.002-0.6,0.009
		c-0.199,0.004-0.399,0.008-0.6,0.017c-0.152,0.393-0.296,0.784-0.426,1.176c-0.131,0.393-0.25,0.776-0.358,1.154
		c-0.093-0.017-0.183-0.023-0.271-0.023s-0.18,0-0.271,0c-0.091,0-0.185,0-0.277,0c-0.092,0-0.191,0.008-0.299,0.023
		c0.094-0.201,0.215-0.479,0.369-0.83c0.153-0.354,0.322-0.755,0.507-1.199c0.185-0.445,0.384-0.926,0.594-1.438
		c0.212-0.511,0.423-1.024,0.635-1.549c0.211-0.522,0.419-1.039,0.624-1.548c0.203-0.506,0.389-0.979,0.558-1.418
		c0.077,0.017,0.149,0.031,0.22,0.041c0.069,0.015,0.143,0.019,0.217,0.019c0.078,0,0.152-0.004,0.221-0.019
		c0.07-0.01,0.143-0.024,0.22-0.041c0.245,0.654,0.509,1.354,0.79,2.101c0.279,0.744,0.562,1.478,0.848,2.197
		c0.285,0.719,0.561,1.399,0.829,2.047C80.12,92.331,80.366,92.875,80.588,93.323z M76.505,87.566
		c-0.199,0.461-0.388,0.918-0.564,1.367c-0.177,0.45-0.351,0.909-0.52,1.377h2.11c-0.168-0.468-0.337-0.927-0.501-1.377
		C76.866,88.484,76.69,88.027,76.505,87.566z"/>
	<path fill="#808080" d="M93.272,92.508c-0.047,0.164-0.076,0.328-0.094,0.49c-0.621,0.314-1.406,0.474-2.351,0.474
		c-0.669,0-1.268-0.097-1.793-0.283c-0.527-0.188-0.974-0.453-1.339-0.797c-0.365-0.343-0.644-0.746-0.836-1.216
		c-0.19-0.469-0.288-0.977-0.288-1.52c0-0.802,0.124-1.48,0.374-2.037c0.25-0.558,0.585-1.011,1.004-1.359
		c0.42-0.35,0.906-0.605,1.459-0.768c0.553-0.164,1.134-0.242,1.74-0.242c0.2,0,0.412,0.016,0.636,0.047
		c0.222,0.029,0.437,0.07,0.646,0.119c0.207,0.051,0.405,0.108,0.594,0.182c0.188,0.068,0.346,0.141,0.479,0.217
		c-0.078,0.193-0.137,0.387-0.178,0.584c-0.043,0.195-0.072,0.393-0.088,0.594h-0.161c-0.292-0.371-0.591-0.633-0.899-0.791
		c-0.309-0.156-0.669-0.236-1.083-0.236c-0.309,0-0.617,0.068-0.931,0.207c-0.311,0.14-0.593,0.351-0.846,0.636
		c-0.254,0.284-0.459,0.646-0.619,1.09c-0.156,0.44-0.235,0.972-0.235,1.586c0,0.593,0.081,1.099,0.243,1.517
		s0.371,0.762,0.629,1.024c0.257,0.267,0.547,0.461,0.875,0.584s0.655,0.187,0.986,0.187c0.184,0,0.373-0.023,0.566-0.064
		c0.191-0.043,0.379-0.1,0.563-0.174c0.186-0.072,0.36-0.164,0.524-0.271c0.166-0.106,0.311-0.227,0.434-0.356l0.15,0.094
		C93.37,92.179,93.317,92.342,93.272,92.508z"/>
	<path fill="#808080" d="M100.515,86.892c-0.013-0.494-0.033-0.992-0.062-1.492c0.346,0.009,0.689,0.019,1.027,0.033
		c0.339,0.019,0.68,0.022,1.027,0.022c0.568,0,1.074-0.004,1.516-0.018c0.441-0.01,0.74-0.023,0.894-0.039
		c-0.032,0.123-0.046,0.283-0.046,0.484c0,0.123,0.002,0.219,0.012,0.287c0.007,0.07,0.019,0.146,0.034,0.229
		c-0.224-0.015-0.468-0.028-0.731-0.045c-0.266-0.017-0.524-0.03-0.773-0.047c-0.25-0.017-0.475-0.026-0.674-0.035
		c-0.201-0.008-0.344-0.01-0.428-0.01c-0.031,0.422-0.047,0.842-0.051,1.258c-0.005,0.414-0.007,0.832-0.007,1.256
		c0.499-0.008,0.952-0.021,1.354-0.034c0.404-0.017,0.824-0.035,1.264-0.058c-0.023,0.131-0.041,0.229-0.047,0.299
		c-0.008,0.07-0.012,0.144-0.012,0.22c0,0.062,0.006,0.125,0.018,0.188c0.012,0.065,0.024,0.159,0.041,0.282
		c-0.877-0.067-1.75-0.104-2.618-0.104c0,0.246-0.001,0.492-0.005,0.736c-0.005,0.248-0.006,0.494-0.006,0.74
		c0,0.498,0.011,0.979,0.033,1.441c0.439,0,0.876-0.013,1.314-0.035c0.439-0.023,0.883-0.062,1.327-0.115
		c-0.016,0.084-0.027,0.16-0.034,0.229c-0.01,0.067-0.012,0.166-0.012,0.289s0.002,0.22,0.012,0.287
		c0.007,0.069,0.019,0.127,0.034,0.174c-0.208-0.008-0.464-0.014-0.768-0.019c-0.304-0.004-0.72-0.006-1.251-0.006
		c-0.469,0-0.85,0-1.141,0c-0.285,0-0.513,0-0.688,0c-0.172,0-0.303,0.002-0.391,0.006c-0.089,0.005-0.164,0.011-0.227,0.019
		c0.028-0.478,0.049-0.963,0.062-1.459c0.013-0.495,0.021-1.062,0.021-1.7V88.59C100.537,87.958,100.528,87.388,100.515,86.892z"/>
	<path fill="#808080" d="M114.322,93.316c-0.429-0.104-0.797-0.276-1.112-0.521c-0.315-0.242-0.564-0.553-0.744-0.934
		c-0.181-0.381-0.271-0.844-0.271-1.391c0-0.307,0.002-0.582,0.006-0.822c0.004-0.242,0.006-0.469,0.006-0.676
		s0.002-0.406,0.006-0.6c0.002-0.191,0.005-0.394,0.005-0.601c0-0.623-0.005-1.127-0.011-1.51c-0.008-0.386-0.02-0.675-0.035-0.865
		c0.155,0.017,0.312,0.028,0.475,0.039c0.162,0.015,0.318,0.019,0.473,0.019c0.152,0,0.311-0.004,0.473-0.019
		c0.16-0.011,0.317-0.022,0.473-0.039c-0.077,0.744-0.125,1.438-0.139,2.082c-0.017,0.642-0.024,1.293-0.024,1.955
		c0,0.698,0.05,1.265,0.152,1.694c0.099,0.429,0.246,0.763,0.442,0.996c0.197,0.234,0.438,0.39,0.722,0.467
		c0.282,0.076,0.614,0.115,0.991,0.115c0.46,0,0.822-0.115,1.084-0.346c0.261-0.23,0.459-0.539,0.593-0.922
		c0.136-0.385,0.216-0.826,0.249-1.322c0.029-0.494,0.045-1.012,0.045-1.551c0-0.529-0.007-1.059-0.023-1.584
		c-0.014-0.527-0.037-1.055-0.068-1.586c0.109,0.016,0.211,0.029,0.312,0.039c0.1,0.014,0.189,0.018,0.275,0.018
		c0.102,0,0.195-0.004,0.289-0.018c0.092-0.01,0.188-0.023,0.289-0.039c-0.017,0.168-0.031,0.395-0.047,0.68
		s-0.031,0.613-0.047,0.986c-0.016,0.373-0.029,0.783-0.041,1.234c-0.012,0.449-0.016,0.924-0.016,1.424
		c0,1.336-0.288,2.297-0.865,2.877c-0.576,0.58-1.422,0.871-2.537,0.871C115.208,93.472,114.749,93.418,114.322,93.316z"/>
	<path fill="#808080" d="M128.276,86.667c-0.004-0.184-0.016-0.317-0.031-0.401c-0.115,0-0.256,0.002-0.426,0.01
		c-0.17,0.009-0.352,0.021-0.542,0.029c-0.192,0.012-0.39,0.026-0.589,0.047s-0.384,0.039-0.553,0.062
		c0.015-0.084,0.027-0.168,0.04-0.254c0.013-0.084,0.018-0.168,0.018-0.252c0-0.086-0.005-0.17-0.018-0.254
		c-0.012-0.086-0.024-0.168-0.04-0.254c0.261,0.008,0.499,0.016,0.709,0.023c0.211,0.007,0.428,0.012,0.646,0.016
		c0.219,0.006,0.457,0.01,0.715,0.014c0.258,0.002,0.566,0.004,0.928,0.004c0.363,0,0.673-0.002,0.929-0.004
		c0.258-0.004,0.494-0.008,0.709-0.014c0.215-0.004,0.426-0.008,0.629-0.016s0.425-0.016,0.662-0.023
		c-0.015,0.086-0.026,0.168-0.039,0.254c-0.01,0.084-0.019,0.168-0.019,0.254c0,0.084,0.009,0.168,0.019,0.252
		c0.013,0.086,0.024,0.17,0.039,0.254c-0.151-0.022-0.326-0.043-0.519-0.062c-0.192-0.021-0.383-0.035-0.571-0.047
		c-0.188-0.011-0.365-0.021-0.535-0.029c-0.168-0.008-0.312-0.01-0.429-0.01c-0.006,0.036-0.012,0.092-0.016,0.159
		c-0.004,0.07-0.006,0.15-0.006,0.242v0.613v2.881c0,0.639,0.008,1.205,0.021,1.701c0.018,0.496,0.041,0.982,0.07,1.459
		c-0.132-0.016-0.271-0.023-0.429-0.023c-0.151,0-0.323,0-0.519,0c-0.19,0-0.364,0-0.52,0c-0.154,0-0.295,0.009-0.426,0.023
		c0.031-0.477,0.053-0.963,0.068-1.459c0.018-0.496,0.024-1.062,0.024-1.701V87.28C128.282,87.056,128.28,86.853,128.276,86.667z"/>
	<path fill="#808080" d="M139.12,86.892c-0.016-0.494-0.037-0.992-0.068-1.492c0.13,0.017,0.271,0.029,0.427,0.039
		c0.151,0.015,0.326,0.019,0.521,0.019c0.19,0,0.362-0.004,0.518-0.019c0.154-0.01,0.297-0.022,0.428-0.039
		c-0.031,0.5-0.055,0.998-0.07,1.492c-0.016,0.496-0.022,1.063-0.022,1.7v1.568c0,0.639,0.008,1.205,0.022,1.701
		c0.016,0.496,0.039,0.982,0.07,1.459c-0.131-0.016-0.273-0.023-0.428-0.023c-0.155,0-0.326,0-0.518,0c-0.193,0-0.367,0-0.521,0
		s-0.297,0.009-0.427,0.023c0.031-0.477,0.054-0.963,0.068-1.459c0.016-0.496,0.023-1.062,0.023-1.701v-1.568
		C139.143,87.958,139.135,87.388,139.12,86.892z"/>
	<path fill="#808080" d="M154.78,92.508c-0.047,0.164-0.078,0.328-0.094,0.49c-0.623,0.314-1.406,0.474-2.352,0.474
		c-0.67,0-1.269-0.097-1.793-0.283c-0.529-0.188-0.974-0.453-1.34-0.797c-0.363-0.343-0.644-0.746-0.834-1.216
		c-0.193-0.469-0.289-0.977-0.289-1.52c0-0.802,0.123-1.48,0.373-2.037c0.25-0.558,0.586-1.011,1.004-1.359
		c0.42-0.35,0.905-0.605,1.459-0.768c0.555-0.162,1.135-0.242,1.742-0.242c0.198,0,0.409,0.016,0.635,0.047
		c0.221,0.029,0.438,0.07,0.645,0.119c0.207,0.051,0.404,0.108,0.594,0.182c0.188,0.068,0.348,0.141,0.479,0.217
		c-0.075,0.193-0.137,0.387-0.18,0.584c-0.041,0.195-0.07,0.393-0.084,0.594h-0.164c-0.289-0.371-0.592-0.633-0.897-0.791
		c-0.308-0.156-0.668-0.236-1.082-0.236c-0.31,0-0.619,0.068-0.931,0.207c-0.311,0.14-0.594,0.351-0.846,0.636
		c-0.256,0.284-0.461,0.646-0.619,1.09c-0.156,0.44-0.235,0.972-0.235,1.586c0,0.593,0.082,1.099,0.241,1.517
		c0.162,0.418,0.371,0.762,0.629,1.024c0.259,0.267,0.55,0.461,0.875,0.584c0.328,0.123,0.656,0.187,0.986,0.187
		c0.187,0,0.375-0.023,0.564-0.064c0.193-0.043,0.383-0.1,0.566-0.174c0.186-0.072,0.358-0.164,0.524-0.271
		c0.164-0.106,0.308-0.227,0.433-0.356l0.149,0.094C154.877,92.179,154.823,92.342,154.78,92.508z"/>
	<path fill="#808080" d="M168.143,93.323c-0.184-0.017-0.359-0.023-0.525-0.023c-0.164,0-0.326,0-0.488,0s-0.323,0-0.491,0
		c-0.164,0-0.328,0.008-0.49,0.023c-0.121-0.378-0.25-0.763-0.381-1.154s-0.269-0.783-0.412-1.176
		c-0.248-0.009-0.494-0.013-0.739-0.017c-0.246-0.007-0.492-0.009-0.736-0.009c-0.201,0-0.4,0.002-0.601,0.009
		c-0.198,0.004-0.397,0.008-0.6,0.017c-0.154,0.393-0.296,0.784-0.429,1.176c-0.131,0.393-0.25,0.776-0.354,1.154
		c-0.097-0.017-0.185-0.023-0.271-0.023c-0.09,0-0.183,0-0.271,0c-0.094,0-0.186,0-0.277,0c-0.091,0-0.193,0.008-0.299,0.023
		c0.092-0.201,0.215-0.479,0.369-0.83c0.152-0.354,0.32-0.755,0.506-1.199c0.186-0.445,0.385-0.926,0.594-1.438
		c0.211-0.511,0.422-1.024,0.637-1.549c0.209-0.522,0.418-1.039,0.621-1.548c0.203-0.506,0.39-0.979,0.562-1.418
		c0.076,0.017,0.147,0.031,0.22,0.041c0.067,0.015,0.141,0.019,0.217,0.019c0.078,0,0.149-0.004,0.221-0.019
		c0.068-0.01,0.141-0.024,0.217-0.041c0.248,0.654,0.51,1.354,0.791,2.101c0.279,0.744,0.562,1.478,0.848,2.197
		c0.285,0.719,0.562,1.399,0.83,2.047C167.674,92.331,167.92,92.875,168.143,93.323z M164.063,87.566
		c-0.201,0.461-0.391,0.918-0.568,1.367c-0.176,0.45-0.35,0.909-0.518,1.377h2.109c-0.168-0.468-0.336-0.927-0.5-1.377
		C164.42,88.484,164.245,88.027,164.063,87.566z"/>
	<path fill="#808080" d="M175.073,86.892c-0.014-0.494-0.039-0.992-0.068-1.492c0.132,0.017,0.273,0.029,0.427,0.039
		c0.153,0.015,0.325,0.019,0.519,0.019c0.192,0,0.366-0.004,0.521-0.019c0.151-0.01,0.295-0.022,0.426-0.039
		c-0.03,0.5-0.056,0.998-0.067,1.492c-0.017,0.496-0.023,1.063-0.023,1.7v1.568c0,0.439,0.002,0.861,0.006,1.271
		s0.01,0.762,0.018,1.062c0.438,0,0.875-0.013,1.312-0.035c0.439-0.023,0.881-0.062,1.326-0.115c-0.016,0.084-0.027,0.16-0.033,0.23
		c-0.008,0.067-0.012,0.165-0.012,0.288s0.004,0.22,0.012,0.287c0.006,0.069,0.018,0.127,0.033,0.175
		c-0.205-0.009-0.463-0.015-0.766-0.019c-0.306-0.005-0.722-0.007-1.252-0.007c-0.47,0-0.849,0-1.142,0c-0.285,0-0.515,0-0.687,0
		c-0.174,0-0.305,0.002-0.395,0.007c-0.086,0.004-0.162,0.01-0.223,0.019c0.029-0.479,0.055-0.964,0.067-1.46
		c0.017-0.495,0.022-1.062,0.022-1.7v-1.568C175.096,87.958,175.088,87.388,175.073,86.892z"/>
	<path fill="#808080" d="M188.633,85.963c-0.354,0-0.643,0.104-0.865,0.312c-0.223,0.209-0.334,0.451-0.334,0.729
		c0,0.283,0.086,0.516,0.26,0.695c0.172,0.182,0.391,0.346,0.65,0.491c0.264,0.146,0.543,0.285,0.842,0.42
		c0.301,0.136,0.582,0.302,0.842,0.496c0.262,0.196,0.479,0.435,0.652,0.715c0.172,0.281,0.258,0.64,0.258,1.078
		c0,0.384-0.072,0.735-0.217,1.056c-0.146,0.319-0.355,0.594-0.623,0.819c-0.27,0.228-0.592,0.397-0.963,0.519
		c-0.373,0.119-0.791,0.18-1.25,0.18c-0.416,0-0.787-0.045-1.113-0.133c-0.328-0.088-0.576-0.199-0.744-0.33
		c0.076-0.268,0.143-0.514,0.195-0.736c0.052-0.223,0.1-0.467,0.139-0.729h0.219c0.031,0.17,0.088,0.33,0.174,0.479
		c0.084,0.15,0.191,0.283,0.322,0.398s0.289,0.207,0.473,0.271c0.187,0.063,0.392,0.101,0.623,0.101
		c0.461,0,0.802-0.117,1.021-0.349c0.222-0.229,0.33-0.508,0.33-0.829c0-0.294-0.086-0.529-0.256-0.716
		c-0.168-0.185-0.379-0.349-0.634-0.489c-0.254-0.142-0.53-0.281-0.829-0.414c-0.302-0.136-0.578-0.3-0.83-0.49
		c-0.254-0.193-0.468-0.43-0.636-0.709c-0.168-0.281-0.254-0.641-0.254-1.078c0-0.4,0.072-0.754,0.213-1.062
		c0.144-0.307,0.334-0.564,0.572-0.771c0.238-0.209,0.514-0.364,0.824-0.473c0.311-0.109,0.641-0.162,0.986-0.162
		c0.416,0,0.777,0.049,1.09,0.15c0.311,0.1,0.578,0.238,0.801,0.414c-0.07,0.178-0.129,0.348-0.18,0.514s-0.113,0.375-0.189,0.629
		h-0.174C189.782,86.293,189.317,85.963,188.633,85.963z"/>
	<path fill="#808080" d="M194.567,93.361c0.131-0.493,0.252-0.873,0.357-1.135c0.106-0.263,0.217-0.433,0.324-0.509
		c0.104-0.075,0.235-0.114,0.391-0.114c0.094,0,0.188,0.017,0.281,0.047c0.1,0.029,0.188,0.074,0.268,0.134
		c0.08,0.057,0.146,0.131,0.195,0.225c0.051,0.092,0.076,0.195,0.076,0.311c0,0.068-0.019,0.15-0.056,0.242
		c-0.032,0.092-0.118,0.244-0.262,0.457c-0.144,0.211-0.354,0.512-0.629,0.904c-0.277,0.393-0.658,0.922-1.144,1.59l-0.287-0.113
		C194.276,94.538,194.436,93.859,194.567,93.361z"/>
	<path fill="#808080" d="M210.639,86.892c-0.016-0.494-0.037-0.992-0.068-1.492c0.131,0.017,0.273,0.029,0.426,0.039
		c0.154,0.015,0.328,0.019,0.519,0.019c0.192,0,0.366-0.004,0.521-0.019c0.152-0.01,0.295-0.022,0.426-0.039
		c-0.03,0.5-0.055,0.998-0.067,1.492c-0.017,0.496-0.022,1.063-0.022,1.7v1.568c0,0.639,0.008,1.205,0.022,1.701
		s0.037,0.982,0.067,1.459c-0.131-0.016-0.272-0.023-0.426-0.023c-0.154,0-0.328,0-0.521,0c-0.188,0-0.363,0-0.519,0
		c-0.151,0-0.295,0.009-0.426,0.023c0.031-0.477,0.053-0.963,0.068-1.459c0.015-0.496,0.023-1.062,0.023-1.701v-1.568
		C210.663,87.958,210.655,87.388,210.639,86.892z"/>
	<path fill="#808080" d="M220.303,86.357c-0.016-0.36-0.027-0.683-0.035-0.957c0.215,0.037,0.389,0.058,0.52,0.058
		s0.305-0.021,0.519-0.058c0.838,0.931,1.668,1.845,2.485,2.744c0.818,0.897,1.658,1.813,2.521,2.746v-1.007v-1.116
		c0-0.377-0.002-0.748-0.006-1.113c-0.005-0.364-0.009-0.7-0.013-1.01c-0.006-0.308-0.012-0.569-0.022-0.795
		c-0.013-0.224-0.022-0.373-0.039-0.449c0.215,0.037,0.388,0.058,0.521,0.058c0.129,0,0.301-0.021,0.518-0.058
		c-0.037,0.699-0.07,1.332-0.092,1.896c-0.023,0.564-0.043,1.099-0.059,1.597c-0.017,0.502-0.025,0.996-0.029,1.481
		c-0.004,0.49-0.006,1.01-0.006,1.562v1.385c-0.154-0.016-0.312-0.023-0.474-0.023c-0.168,0-0.319,0.009-0.448,0.023
		c-1.584-1.846-3.263-3.701-5.037-5.57c-0.01,0.226-0.017,0.447-0.021,0.67c-0.004,0.224-0.006,0.447-0.006,0.681v1.338
		c0,0.461,0.002,0.854,0.006,1.177c0.004,0.321,0.011,0.596,0.021,0.817c0.008,0.224,0.014,0.405,0.02,0.549
		c0.008,0.142,0.018,0.257,0.023,0.341c-0.09-0.017-0.185-0.023-0.275-0.023s-0.182,0-0.266,0c-0.176,0-0.353,0.008-0.529,0.023
		c0.016-0.062,0.035-0.281,0.059-0.658c0.021-0.375,0.045-0.836,0.074-1.379c0.025-0.541,0.049-1.129,0.068-1.763
		c0.02-0.635,0.029-1.243,0.029-1.828C220.327,87.165,220.319,86.717,220.303,86.357z"/>
	<path fill="#808080" d="M241.036,92.508c-0.047,0.164-0.076,0.328-0.092,0.49c-0.623,0.314-1.408,0.474-2.354,0.474
		c-0.668,0-1.266-0.097-1.791-0.283c-0.527-0.188-0.975-0.453-1.34-0.797c-0.363-0.343-0.644-0.746-0.836-1.216
		c-0.191-0.469-0.287-0.977-0.287-1.52c0-0.802,0.125-1.48,0.375-2.037c0.248-0.558,0.584-1.011,1.002-1.359
		c0.42-0.35,0.906-0.605,1.459-0.768c0.555-0.162,1.133-0.242,1.742-0.242c0.198,0,0.41,0.016,0.633,0.047
		c0.225,0.029,0.438,0.07,0.646,0.119c0.207,0.051,0.406,0.108,0.595,0.182c0.188,0.068,0.348,0.141,0.477,0.217
		c-0.076,0.193-0.135,0.387-0.176,0.584c-0.043,0.195-0.072,0.393-0.088,0.594h-0.16c-0.293-0.371-0.592-0.633-0.9-0.791
		c-0.307-0.156-0.668-0.236-1.084-0.236c-0.307,0-0.615,0.068-0.928,0.207c-0.312,0.14-0.596,0.351-0.848,0.636
		c-0.254,0.284-0.459,0.646-0.617,1.09c-0.158,0.44-0.236,0.972-0.236,1.586c0,0.593,0.08,1.099,0.242,1.517
		c0.16,0.418,0.371,0.762,0.629,1.024c0.256,0.267,0.549,0.461,0.877,0.584c0.326,0.123,0.654,0.187,0.984,0.187
		c0.186,0,0.375-0.023,0.565-0.064c0.19-0.043,0.381-0.1,0.563-0.174c0.185-0.072,0.359-0.164,0.525-0.271
		c0.162-0.106,0.309-0.227,0.432-0.356l0.15,0.094C241.135,92.179,241.081,92.342,241.036,92.508z"/>
	<path fill="#808080" d="M245.034,91.892c0.187-0.185,0.406-0.276,0.668-0.276s0.484,0.094,0.67,0.276
		c0.185,0.185,0.275,0.405,0.275,0.668s-0.092,0.479-0.275,0.651c-0.186,0.172-0.408,0.261-0.67,0.261s-0.481-0.089-0.668-0.261
		c-0.186-0.174-0.277-0.391-0.277-0.651S244.848,92.077,245.034,91.892z"/>
</g>
</svg>
