<?xml version="1.0" encoding="utf-8"?>
<!-- Generator: Adobe Illustrator 20.0.0, SVG Export Plug-In . SVG Version: 6.00 Build 0)  -->
<svg version="1.1" id="Layer_1" xmlns="http://www.w3.org/2000/svg" xmlns:xlink="http://www.w3.org/1999/xlink" x="0px" y="0px"
	 viewBox="0 0 162 70.3" style="enable-background:new 0 0 162 70.3;" xml:space="preserve">
<style type="text/css">
	.st0{fill:#015491;}
</style>
<path class="st0" d="M40.8,6.4c0-1-0.4-2-1.6-2c-1,0-1.6,0.8-1.6,1.8c0,4.8,10.1,2.3,10.1,11c0,5.6-2.6,7.9-8.9,7.9
	c-5.2,0-8-1.8-8-7.1v-0.6h6.6v1.1c0,1.2,0.5,2.1,1.7,2.1c1.3,0,1.7-1.1,1.7-2.1c0-1.6-0.6-1.9-1.5-2.4c-0.9-0.5-2.1-1-3.4-1.6
	c-3.7-1.8-4.9-3.1-4.9-6.7c0-3.3,1-5.2,2.6-6.3C34.8,0.7,36.6,0,39.2,0c6.8,0,8,3.4,8,7.4h-6.4C40.8,7.4,40.8,6.4,40.8,6.4z"/>
<path class="st0" d="M58.7,22.5L58.7,22.5c-1,1.8-2.7,2.6-4.9,2.6c-2.3,0-4.5-1.3-4.5-4.6V6.3h6.6v12.1c0,1.4,0.4,1.8,1.3,1.8
	c0.9,0,1.3-0.7,1.3-1.8V6.3h6.6v18.3h-6.4V22.5z"/>
<path class="st0" d="M66.9,6.3h6.4V9h0.1c0.6-1.8,2.1-3.2,3.9-3.2c0.7,0,0.9,0.1,1.1,0.1v6c-0.2,0-0.5-0.1-0.8-0.1
	c-0.3,0-0.6,0-1.3,0c-2.3,0-2.8,1.2-2.8,3.4v9.5h-6.6V6.3z"/>
<path class="st0" d="M88.9,6.3h6.3v17.6c0,5.3-3.2,7-8.1,7c-6.9,0-7.3-3.1-7.4-5.3h6c0,0.5,0.1,0.8,0.3,1c0.3,0.3,0.6,0.4,1.1,0.4
	c1.1,0,1.6-0.4,1.6-1.7v-3.6h-0.1c-0.8,1.8-2.4,2.3-4.2,2.3c-4.3,0-5.2-4.6-5.2-8.9c0-4.1,0.4-9.3,5.7-9.3c2.1,0,3.3,0.9,4,2.7h0.1
	C88.9,8.6,88.9,6.3,88.9,6.3z M87.2,10.7c-1.3,0-1.5,1.3-1.5,4.7c0,2.5,0.2,3.9,1.5,3.9c1.3,0,1.5-1.4,1.5-3.9
	C88.7,12,88.5,10.7,87.2,10.7"/>
<path class="st0" d="M103.1,18.9c0,1,0.1,2.3,1.4,2.3c1.3,0,1.4-1.2,1.4-3h6c0,2.5-0.7,4.2-2,5.3c-1.3,1.1-3.1,1.6-5.4,1.6
	c-7.2,0-8-4.5-8-9.6c0-5.1,0.8-9.6,8-9.6c7.5,0,7.5,4.7,7.5,10.4v0.3h-9V18.9z M105.9,12c0-1.8-0.4-2.3-1.4-2.3
	c-0.9,0-1.4,0.5-1.4,2.3v1.1h2.8V12z"/>
<path class="st0" d="M113.2,6.3h6.4V9h0.1c0.6-1.8,2.1-3.2,3.9-3.2c0.7,0,0.9,0.1,1.1,0.1v6c-0.2,0-0.5-0.1-0.8-0.1
	c-0.3,0-0.6,0-1.3,0c-2.3,0-2.8,1.2-2.8,3.4v9.5h-6.6L113.2,6.3L113.2,6.3z"/>
<path class="st0" d="M125.3,6.3h6.8l1.7,11.1h0.1l1.5-11.1h6.6l-4.7,18.1c-1.1,4.4-2,6.1-6.9,6.1c-1.4,0-2.3-0.1-3.1-0.3V26
	c0.6,0.1,1.1,0.1,1.7,0.1c0.5,0,0.9-0.2,1.2-0.5c0.2-0.3,0.3-0.6,0.3-1L125.3,6.3z"/>
<path class="st0" d="M35,27.5c2.3,0,3.6,1.8,3.6,5.5c0,3.7-1.3,5.5-3.6,5.5c-2.3,0-3.6-1.8-3.6-5.5C31.4,29.4,32.7,27.5,35,27.5
	 M35,37.5c1.3,0,2.4-1.1,2.4-4.5c0-3.3-1-4.5-2.4-4.5s-2.4,1.1-2.4,4.5C32.7,36.4,33.7,37.5,35,37.5"/>
<path class="st0" d="M40.4,27.8h1.1v1.5h0c0.6-1.2,1.6-1.7,2.7-1.7c1.6,0,2.7,0.8,2.7,2.8v7.9h-1.2v-7.6c0-1.4-0.6-2.2-1.8-2.2
	c-1.4,0-2.3,1.1-2.3,2.7v7.1h-1.2C40.4,38.3,40.4,27.8,40.4,27.8z"/>
<path class="st0" d="M54.4,42.4V43c0,2.6,1.4,4,4.3,4c2.7,0,4-1.5,4-3.1c0-2.3-1.4-3.3-3.8-3.8l-2.9-0.8c-3.8-1.2-5.5-2.8-5.5-5.9
	c0-3.9,3.2-6.1,8.2-6.1c6.8,0,7.5,3.5,7.5,5.7v0.5H62v-0.5c0-2-1.1-3.1-3.7-3.1c-1.8,0-3.5,0.8-3.5,3.1c0,1.8,1.1,2.8,3.9,3.7
	l2.8,0.8c3.7,1.1,5.3,2.8,5.3,5.7c0,4.6-3.4,6.5-8.7,6.5c-6.5,0-8-3.6-8-6.6v-0.5L54.4,42.4L54.4,42.4z"/>
<path class="st0" d="M80.2,47.2h-0.1c-1,1.5-2.9,2.3-5.1,2.3c-3,0-4.9-1.1-4.9-5.3V32.8h4v11.7c0,1.8,1,2.4,2.7,2.4
	c1.7,0,3.2-0.9,3.2-2.7V32.8h4v16.3h-3.8V47.2z"/>
<path class="st0" d="M87.8,32.8h3.8v1.9h0.1c1-1.5,2.9-2.3,5.1-2.3c3,0,4.9,1.1,4.9,4.4v12.3h-4V38c0-2.1-0.8-2.9-2.8-2.9
	c-1.6,0-3.2,1.1-3.2,3.2v10.9h-4V32.8z"/>
<path class="st0" d="M115.7,47.1L115.7,47.1c-0.6,1.1-1.6,2.4-4.4,2.4c-4.6,0-6.5-3.2-6.5-8.8c0-7.2,3.1-8.4,6.1-8.4
	c2.1,0,3.8,0.9,4.5,2.3h0.1v-7.2h4v21.6h-3.8L115.7,47.1L115.7,47.1z M112.1,35c-2.3,0-3.1,1.5-3.1,5.9c0,3.7,0.6,6,3.4,6
	c2.7,0,3.4-2.3,3.4-5.8C115.7,37.3,115.1,35,112.1,35"/>
<path class="st0" d="M136.3,45.7c0,0.6,0.4,1.2,1,1.2c0.3,0,0.5,0,0.7-0.1v2.1c-0.5,0.2-1.2,0.4-2,0.4c-1.8,0-3.2-0.6-3.4-2.1h-0.1
	c-1.1,1.6-2.6,2.4-4.9,2.4c-3.2,0-5.2-1.5-5.2-4.6c0-3.6,1.9-4.4,4.6-5.1l3.1-0.7c1.4-0.3,2.3-0.7,2.3-2.1c0-1.5-0.6-2.4-2.7-2.4
	c-2.7,0-3,1.5-3,3.1H123c0-3.5,1.7-5.4,7-5.4c3.5,0,6.3,1.1,6.3,4L136.3,45.7L136.3,45.7z M132.5,40.5c-1,0.7-3.2,1.1-4.4,1.5
	c-1.1,0.5-1.6,1.4-1.6,2.6c0,1.4,0.8,2.5,2.5,2.5c2.4,0,3.6-1.5,3.6-3.9V40.5z"/>
<path class="st0" d="M143,32.8l3.4,12.2h0.1l3.2-12.2h4.2l-5.5,16.9c-1.6,4.5-2.8,5-6.9,5c-0.5,0-1.1-0.1-1.6-0.1V52
	c0.4,0.1,0.9,0.1,1.3,0.1c1.4,0,2.3-0.2,2.7-1.3l0.5-1.3l-5.6-16.6C138.7,32.8,143,32.8,143,32.8z"/>
<path class="st0" d="M32.3,52.7c-2.1,0-2.7,2.4-2.7,2.4l-0.2-2.1l-0.6,0.5l-2.8-25.9l-1.9,24.9L24,54.1l-0.2,2.4
	C23.5,59,23.1,57,23.1,57c-0.3-5.8-1.3-5-1.3-5c-1-0.4-3.9,1.8-3.9,1.8c-2.1,0.6-3.1-0.6-3.1-0.6L10,40.5L5.8,52.1
	c-0.5,2.1-3.3,1.6-3.3,1.6c-0.7,0-1.7,0-2.5,0c0,0.2,0,0.4-0.1,0.6c0,0.3,0,0.7,0,1c1.6-0.2,4.3-0.1,4.3-0.1c0.8,0,2.7-1.2,2.7-1.2
	l3.1-8.6c0,0,3.1,8.4,3.4,8.8c2.5,3.5,5.4,1.2,5.4,1.2c2.5-2.8,2.8,0.5,2.8,0.5l0.5,3.1c1.6,5.7,2.6-0.3,2.6-0.3l1.3-18.9l1.3,15.6
	l0.9-0.3c-0.1,6.3,1.8,1.6,1.8,1.6c0.6-2.7,2.2-2.7,2.2-2.7l110.3,0.6v-2.8L32.3,52.7z"/>
<path class="st0" d="M157,33.4c-0.2-0.1-0.4-0.2-0.6-0.2c-0.1,0-0.2,0-0.3,0c-0.1,0-0.2,0.1-0.3,0.1c-0.1,0-0.1,0.1-0.2,0.2
	c0,0.1-0.1,0.2-0.1,0.3c0,0.1,0,0.2,0.1,0.3c0.1,0.1,0.1,0.1,0.3,0.2c0.1,0,0.2,0.1,0.4,0.1c0.1,0,0.3,0.1,0.4,0.1
	c0.1,0,0.3,0.1,0.4,0.1c0.1,0,0.3,0.1,0.4,0.2c0.1,0.1,0.2,0.2,0.3,0.3c0.1,0.1,0.1,0.3,0.1,0.4c0,0.2,0,0.3-0.1,0.5
	c-0.1,0.1-0.2,0.2-0.3,0.3c-0.1,0.1-0.3,0.1-0.4,0.2c-0.2,0-0.3,0.1-0.5,0.1c-0.2,0-0.4,0-0.6-0.1c-0.2,0-0.3-0.1-0.5-0.2
	c-0.1-0.1-0.2-0.2-0.3-0.4c-0.1-0.2-0.1-0.3-0.1-0.6h0.4c0,0.1,0,0.3,0.1,0.4c0.1,0.1,0.1,0.2,0.2,0.3c0.1,0.1,0.2,0.1,0.3,0.2
	c0.1,0,0.3,0,0.4,0c0.1,0,0.2,0,0.3,0c0.1,0,0.2-0.1,0.3-0.1c0.1,0,0.2-0.1,0.2-0.2c0.1-0.1,0.1-0.2,0.1-0.3c0-0.1,0-0.2-0.1-0.3
	c-0.1-0.1-0.1-0.1-0.3-0.2c-0.1,0-0.2-0.1-0.4-0.1c-0.1,0-0.3-0.1-0.4-0.1c-0.1,0-0.3-0.1-0.4-0.1c-0.1,0-0.3-0.1-0.4-0.2
	c-0.1-0.1-0.2-0.2-0.3-0.3c-0.1-0.1-0.1-0.2-0.1-0.4c0-0.2,0-0.3,0.1-0.5s0.2-0.2,0.3-0.3c0.1-0.1,0.3-0.1,0.4-0.2
	c0.2,0,0.3-0.1,0.5-0.1c0.2,0,0.4,0,0.5,0.1c0.2,0,0.3,0.1,0.4,0.2c0.1,0.1,0.2,0.2,0.3,0.3c0.1,0.1,0.1,0.3,0.1,0.5h-0.4
	C157.3,33.7,157.2,33.5,157,33.4"/>
<polygon class="st0" points="159.1,32.9 160.2,35.9 161.4,32.9 162,32.9 162,36.4 161.6,36.4 161.6,33.5 161.5,33.5 160.4,36.4 
	160,36.4 158.9,33.5 158.9,33.5 158.9,36.4 158.5,36.4 158.5,32.9 "/>
<path class="st0" d="M37,62.1c-0.3,0.7-0.4,1.3-0.5,1.6l-0.4,0c0-0.5,0-0.8,0-0.8c0-0.2-0.1-0.3-0.2-0.4c-0.1-0.1-0.2-0.2-0.4-0.2
	c-0.1,0-0.3-0.1-0.4-0.1c-0.7,0-1.2,0.3-1.7,1c-0.5,0.7-0.7,1.5-0.7,2.3c0,0.5,0.1,0.8,0.3,1.1c0.2,0.3,0.5,0.4,0.9,0.4
	c0.3,0,0.5-0.1,0.8-0.2c0.3-0.1,0.6-0.3,1-0.6l0.3,0.3c-0.9,0.8-1.7,1.2-2.6,1.2c-0.6,0-1.1-0.2-1.4-0.6c-0.3-0.4-0.5-0.9-0.5-1.5
	c0-0.7,0.2-1.3,0.5-2c0.3-0.6,0.8-1.1,1.4-1.5c0.6-0.4,1.2-0.5,1.9-0.5C35.9,61.7,36.4,61.8,37,62.1"/>
<path class="st0" d="M40.4,66.7c-0.3,0.4-0.7,0.6-0.9,0.8c-0.3,0.2-0.5,0.3-0.7,0.3c-0.1,0-0.1,0-0.2-0.1c-0.1-0.1-0.1-0.1-0.1-0.2
	c0-0.1,0-0.2,0.1-0.3l0.5-1.5c0.2-0.5,0.3-0.8,0.3-0.9c0-0.1,0-0.1-0.1-0.1c-0.1,0-0.3,0.2-0.6,0.5c-0.3,0.3-0.5,0.6-0.6,0.8
	c-0.1,0.3-0.3,0.8-0.5,1.7c-0.4,0-0.8,0-1,0c0.1-0.4,0.3-0.9,0.5-1.6l0.9-3.1c0.1-0.3,0.1-0.4,0.1-0.5c0-0.1,0-0.1-0.2-0.1
	c-0.1,0-0.2,0-0.4,0l0.1-0.3c0.7-0.2,1.2-0.3,1.6-0.6l0.2,0.2c-0.2,0.5-0.4,1.1-0.6,1.6l-0.5,1.5c-0.1,0.2-0.1,0.4-0.1,0.4l0,0
	c0.4-0.5,0.8-0.9,1.1-1.2c0.3-0.2,0.6-0.4,0.8-0.4c0.1,0,0.2,0,0.3,0.1c0.1,0.1,0.1,0.1,0.1,0.3c0,0.2-0.1,0.7-0.4,1.4
	c-0.2,0.7-0.4,1.1-0.4,1.3c0,0.1,0,0.1,0.1,0.1c0.1,0,0.2-0.1,0.5-0.3L40.4,66.7z"/>
<path class="st0" d="M44.7,64c-0.2,0.5-0.4,1-0.6,1.6c-0.2,0.6-0.3,1-0.3,1.1c0,0.1,0,0.1,0.1,0.1c0.1,0,0.2-0.1,0.5-0.3l0.2,0.2
	c-0.3,0.4-0.7,0.6-0.9,0.8c-0.3,0.2-0.5,0.3-0.6,0.3c-0.2,0-0.2-0.1-0.2-0.2c0-0.1,0.1-0.4,0.2-0.8c0,0,0-0.1,0.1-0.2l0,0
	c-0.3,0.4-0.6,0.7-0.9,0.9c-0.2,0.2-0.4,0.3-0.6,0.3c-0.2,0-0.4-0.1-0.5-0.3c-0.1-0.2-0.2-0.5-0.2-0.8c0-0.7,0.3-1.4,0.8-2
	c0.5-0.6,1.2-0.9,2-0.9c0.1,0,0.3,0,0.7,0c0.1,0,0.2,0,0.2,0L44.7,64z M43.5,64.3c-0.2-0.1-0.3-0.1-0.4-0.1c-0.3,0-0.6,0.2-0.9,0.7
	c-0.3,0.5-0.4,1-0.4,1.5c0,0.3,0.1,0.5,0.3,0.5c0.1,0,0.3-0.1,0.6-0.4c0.2-0.3,0.5-0.9,0.8-1.8L43.5,64.3z"/>
<path class="st0" d="M48.9,66.7c-0.8,0.7-1.3,1.1-1.7,1.1c-0.2,0-0.3-0.1-0.3-0.3c0,0,0-0.1,0-0.2c0-0.1,0.1-0.3,0.2-0.6l0.6-1.7
	c0-0.1,0-0.1,0-0.2c0-0.1,0-0.1-0.1-0.1c-0.1,0-0.2,0.1-0.4,0.3c-0.2,0.2-0.4,0.4-0.5,0.6c-0.2,0.2-0.3,0.5-0.4,0.7
	c-0.1,0.2-0.2,0.7-0.4,1.4c-0.5,0-0.8,0-1,0c0.4-1.3,0.7-2.2,0.8-2.6c0-0.1,0-0.1,0-0.2c0-0.1,0-0.1-0.1-0.1c0,0-0.1,0-0.2,0.1
	c-0.1,0.1-0.2,0.1-0.2,0.2L45,64.9c0.8-0.8,1.3-1.1,1.6-1.1c0.1,0,0.2,0.1,0.2,0.2c0,0.2-0.2,0.7-0.5,1.4l0,0
	c0.8-1.1,1.5-1.7,2.1-1.7c0.3,0,0.4,0.1,0.4,0.4c0,0.1,0,0.2,0,0.3l-0.7,2.2c0,0.1,0,0.1,0,0.1c0,0.1,0,0.1,0.1,0.1
	c0.1,0,0.3-0.1,0.5-0.3L48.9,66.7z"/>
<path class="st0" d="M53.1,63.9c-0.1,0.1-0.2,0.2-0.2,0.4c-0.1,0-0.3,0-0.4,0c0.1,0.2,0.1,0.3,0.1,0.5c0,0.4-0.2,0.8-0.5,1.1
	c-0.3,0.4-0.8,0.6-1.5,0.6c-0.1,0.2-0.2,0.3-0.2,0.3c0,0.1,0.1,0.1,0.2,0.2c0.3,0.1,0.6,0.2,0.9,0.4s0.5,0.3,0.6,0.4
	c0.1,0.1,0.2,0.2,0.2,0.4c0,0.4-0.2,0.7-0.6,0.9c-0.4,0.2-0.9,0.3-1.6,0.3c-0.5,0-0.9-0.1-1.3-0.2c-0.3-0.2-0.5-0.3-0.5-0.5
	c0-0.2,0.1-0.3,0.2-0.4c0.2-0.1,0.5-0.3,1-0.5c-0.1-0.1-0.2-0.2-0.2-0.3c0-0.2,0.3-0.5,0.8-0.9c0,0,0.1-0.1,0.1-0.1
	c-0.6-0.1-0.9-0.4-0.9-1c0-0.5,0.2-0.9,0.5-1.2c0.4-0.4,0.8-0.5,1.4-0.5c0.2,0,0.4,0,0.6,0.1c0.1,0,0.1,0,0.1,0
	C52.4,63.9,52.7,63.9,53.1,63.9L53.1,63.9z M49.9,67.9c-0.4,0.2-0.6,0.4-0.6,0.6c0,0.1,0.1,0.3,0.3,0.4c0.2,0.1,0.5,0.1,0.7,0.1
	c0.2,0,0.5,0,0.7-0.1c0.2-0.1,0.3-0.2,0.3-0.3c0-0.1-0.1-0.2-0.2-0.2L49.9,67.9z M50.8,66.2c0.2,0,0.4-0.2,0.6-0.5
	c0.2-0.4,0.2-0.7,0.2-1.1c0-0.4-0.1-0.5-0.4-0.5c-0.2,0-0.4,0.2-0.6,0.6c-0.2,0.4-0.2,0.8-0.2,1.1C50.4,66,50.5,66.2,50.8,66.2"/>
<path class="st0" d="M53.2,64.8c0.8-0.7,1.3-1.1,1.6-1.1c0.1,0,0.2,0.1,0.2,0.2c0,0.1,0,0.3-0.1,0.6l-0.7,2c0,0.1,0,0.1,0,0.2
	c0,0.1,0,0.1,0.1,0.1c0.1,0,0.2-0.1,0.5-0.3l0.2,0.2c-0.3,0.3-0.7,0.6-1,0.8c-0.3,0.2-0.5,0.3-0.7,0.3S53,67.7,53,67.5
	c0-0.1,0.1-0.5,0.4-1.2l0.3-0.8c0.1-0.3,0.2-0.5,0.2-0.6c0-0.1,0-0.1-0.1-0.1c-0.1,0-0.2,0.1-0.4,0.3L53.2,64.8z M55,61.8
	c0.1,0,0.2,0,0.3,0.1c0.1,0.1,0.1,0.2,0.1,0.3c0,0.2-0.1,0.4-0.2,0.5c-0.1,0.2-0.3,0.3-0.4,0.3c-0.1,0-0.2,0-0.3-0.1
	c-0.1-0.1-0.1-0.2-0.1-0.4c0-0.2,0.1-0.4,0.2-0.5C54.7,61.9,54.9,61.8,55,61.8"/>
<path class="st0" d="M59.4,66.7c-0.8,0.7-1.3,1.1-1.7,1.1c-0.2,0-0.3-0.1-0.3-0.3c0,0,0-0.1,0-0.2c0-0.1,0.1-0.3,0.2-0.6l0.6-1.7
	c0-0.1,0-0.1,0-0.2c0-0.1,0-0.1-0.1-0.1c-0.1,0-0.2,0.1-0.4,0.3c-0.2,0.2-0.4,0.4-0.5,0.6c-0.2,0.2-0.3,0.5-0.4,0.7
	c-0.1,0.2-0.2,0.7-0.4,1.4c-0.5,0-0.8,0-1,0c0.4-1.3,0.7-2.2,0.8-2.6c0-0.1,0-0.1,0-0.2c0-0.1,0-0.1-0.1-0.1c0,0-0.1,0-0.2,0.1
	c-0.1,0.1-0.2,0.1-0.2,0.2l-0.2-0.2c0.8-0.8,1.3-1.1,1.6-1.1c0.1,0,0.2,0.1,0.2,0.2c0,0.2-0.2,0.7-0.5,1.4l0,0
	c0.8-1.1,1.5-1.7,2.1-1.7c0.3,0,0.4,0.1,0.4,0.4c0,0.1,0,0.2,0,0.3l-0.7,2.2c0,0.1,0,0.1,0,0.1c0,0.1,0,0.1,0.1,0.1
	c0.1,0,0.3-0.1,0.5-0.3L59.4,66.7z"/>
<path class="st0" d="M63.6,63.9c-0.1,0.1-0.2,0.2-0.2,0.4c-0.1,0-0.3,0-0.4,0c0.1,0.2,0.1,0.3,0.1,0.5c0,0.4-0.2,0.8-0.5,1.1
	c-0.3,0.4-0.8,0.6-1.5,0.6c-0.1,0.2-0.2,0.3-0.2,0.3c0,0.1,0.1,0.1,0.2,0.2c0.3,0.1,0.6,0.2,0.9,0.4c0.3,0.1,0.5,0.3,0.6,0.4
	c0.1,0.1,0.2,0.2,0.2,0.4c0,0.4-0.2,0.7-0.6,0.9c-0.4,0.2-0.9,0.3-1.6,0.3c-0.5,0-0.9-0.1-1.3-0.2c-0.3-0.2-0.5-0.3-0.5-0.5
	c0-0.2,0.1-0.3,0.2-0.4c0.2-0.1,0.5-0.3,1-0.5c-0.1-0.1-0.2-0.2-0.2-0.3c0-0.2,0.3-0.5,0.8-0.9c0.1,0,0.1-0.1,0.1-0.1
	c-0.6-0.1-0.9-0.4-0.9-1c0-0.5,0.2-0.9,0.5-1.2c0.4-0.4,0.8-0.5,1.4-0.5c0.2,0,0.4,0,0.6,0.1c0.1,0,0.1,0,0.1,0
	C62.9,63.9,63.2,63.9,63.6,63.9L63.6,63.9z M60.4,67.9c-0.4,0.2-0.6,0.4-0.6,0.6c0,0.1,0.1,0.3,0.3,0.4c0.2,0.1,0.5,0.1,0.7,0.1
	c0.2,0,0.5,0,0.6-0.1c0.2-0.1,0.3-0.2,0.3-0.3c0-0.1-0.1-0.2-0.2-0.2L60.4,67.9z M61.3,66.2c0.2,0,0.4-0.2,0.6-0.5
	c0.2-0.4,0.2-0.7,0.2-1.1c0-0.4-0.1-0.5-0.4-0.5c-0.2,0-0.4,0.2-0.6,0.6c-0.2,0.4-0.2,0.8-0.2,1.1C60.9,66,61,66.2,61.3,66.2"/>
<path class="st0" d="M70.4,65.9c-0.1,0.3-0.3,0.9-0.6,1.7c-0.8,0-1.9,0-3.1,0c-0.5,0-1,0-1.8,0l0.1-0.3c0,0,0,0,0.1,0
	c0.4-0.1,0.6-0.1,0.6-0.1c0.1,0,0.1-0.2,0.3-0.5c0.1-0.2,0.3-0.9,0.6-2.2c0.4-1.3,0.5-2,0.5-2.1c0-0.1,0-0.1-0.1-0.1
	c-0.1,0-0.2-0.1-0.5-0.1c0,0,0,0-0.1,0c-0.1,0-0.1,0-0.1,0l0.1-0.3c0.6,0,1.1,0,1.6,0c0.4,0,0.9,0,1.4,0l-0.1,0.3
	c-0.5,0.1-0.8,0.1-0.8,0.2c-0.1,0-0.1,0.1-0.2,0.2c0,0.1-0.1,0.3-0.2,0.5c-0.1,0.3-0.2,0.8-0.4,1.5c-0.2,0.7-0.3,1.2-0.4,1.6
	c-0.1,0.4-0.2,0.7-0.3,1.1h1.3c0.3,0,0.6,0,0.7,0c0.1,0,0.2-0.1,0.4-0.3c0.1-0.2,0.3-0.5,0.6-0.9L70.4,65.9L70.4,65.9z"/>
<path class="st0" d="M70.9,64.8c0.8-0.7,1.3-1.1,1.6-1.1c0.1,0,0.2,0.1,0.2,0.2c0,0.1-0.1,0.3-0.1,0.6l-0.7,2c0,0.1,0,0.1,0,0.2
	c0,0.1,0,0.1,0.1,0.1c0.1,0,0.2-0.1,0.5-0.3l0.2,0.2c-0.3,0.3-0.7,0.6-1,0.8c-0.3,0.2-0.5,0.3-0.7,0.3c-0.2,0-0.2-0.1-0.2-0.2
	c0-0.1,0.1-0.5,0.4-1.2l0.3-0.8c0.1-0.3,0.2-0.5,0.2-0.6c0-0.1,0-0.1-0.1-0.1s-0.2,0.1-0.4,0.3L70.9,64.8z M72.7,61.8
	c0.1,0,0.2,0,0.3,0.1s0.1,0.2,0.1,0.3c0,0.2-0.1,0.4-0.2,0.5c-0.1,0.2-0.3,0.3-0.4,0.3c-0.1,0-0.2,0-0.3-0.1
	c-0.1-0.1-0.1-0.2-0.1-0.4c0-0.2,0.1-0.4,0.2-0.5C72.4,61.9,72.6,61.8,72.7,61.8"/>
<path class="st0" d="M76.2,63.7c0.3,0.1,0.4,0.4,0.4,0.7c0,0.2-0.1,0.5-0.2,0.8c-0.2,0.3-0.5,0.7-0.9,1.2c-0.4,0.5-0.9,1-1.3,1.4
	h-0.3c0-0.5,0-0.8,0-1.1c0-0.7,0-1.1,0-1.4c0-0.3-0.1-0.4-0.1-0.5c0,0-0.1-0.1-0.1-0.1c0,0-0.2,0.1-0.4,0.3l-0.2-0.2
	c0.7-0.7,1.2-1.1,1.4-1.1c0.1,0,0.1,0,0.2,0.1c0.1,0,0.1,0.2,0.1,0.4c0,0.2,0.1,0.6,0.1,1.2c0,0.6,0,0.9,0,1c0.3-0.3,0.6-0.7,0.7-1
	c0.2-0.3,0.3-0.5,0.3-0.7c0-0.2-0.1-0.2-0.2-0.2l-0.1-0.1C75.8,64.2,76,64,76.2,63.7"/>
<path class="st0" d="M79.4,66.9c-0.7,0.6-1.3,0.9-1.8,0.9c-0.3,0-0.5-0.1-0.6-0.3c-0.2-0.2-0.2-0.5-0.2-0.9c0-0.7,0.3-1.3,0.8-1.9
	c0.5-0.6,1.1-0.9,1.9-0.9c0.4,0,0.7,0.2,0.7,0.5c0,0.4-0.2,0.7-0.5,1c-0.4,0.3-0.9,0.5-1.7,0.7c0,0.1,0,0.2,0,0.3
	c0,0.5,0.2,0.8,0.5,0.8c0.1,0,0.2,0,0.4-0.1c0.1-0.1,0.3-0.2,0.6-0.3L79.4,66.9z M77.8,65.6c0.4-0.1,0.8-0.3,1-0.5
	c0.2-0.2,0.3-0.4,0.3-0.7c0-0.2-0.1-0.3-0.2-0.3c-0.2,0-0.4,0.1-0.5,0.3C78.1,64.7,77.9,65.1,77.8,65.6"/>
<path class="st0" d="M82.8,64c-0.1,0.3-0.2,0.6-0.3,0.9h-0.3c-0.1-0.5-0.3-0.8-0.6-0.8c-0.1,0-0.2,0-0.3,0.1s-0.1,0.1-0.1,0.2
	c0,0.1,0,0.2,0.1,0.3c0.1,0.1,0.2,0.3,0.4,0.5c0.5,0.5,0.7,0.9,0.7,1.2c0,0.3-0.2,0.7-0.5,0.9c-0.3,0.3-0.7,0.4-1.3,0.4
	c-0.4,0-0.8-0.1-1.1-0.3c0.2-0.3,0.3-0.6,0.4-0.9l0.2,0c0,0.2,0.1,0.4,0.3,0.5c0.2,0.1,0.3,0.2,0.5,0.2c0.2,0,0.3,0,0.4-0.1
	c0.1-0.1,0.1-0.2,0.1-0.3c0-0.2-0.2-0.5-0.5-0.8c-0.3-0.4-0.5-0.6-0.6-0.7c-0.1-0.1-0.1-0.3-0.1-0.4c0-0.3,0.1-0.6,0.4-0.8
	c0.3-0.2,0.6-0.3,1-0.3C82.1,63.7,82.5,63.8,82.8,64"/>
<path class="st0" d="M89.1,61.7c0.6,0,1.1,0.2,1.4,0.6c0.3,0.4,0.5,0.8,0.5,1.4c0,0.7-0.2,1.4-0.5,2c-0.3,0.7-0.8,1.2-1.4,1.6
	c-0.6,0.4-1.2,0.6-1.9,0.6c-0.7,0-1.1-0.2-1.4-0.6s-0.5-0.9-0.5-1.5c0-0.6,0.2-1.2,0.5-1.9c0.3-0.7,0.8-1.2,1.3-1.6
	C87.8,61.9,88.4,61.7,89.1,61.7 M87.6,67.3c0.3,0,0.5-0.1,0.7-0.2c0.2-0.2,0.4-0.4,0.7-0.8c0.2-0.4,0.4-0.8,0.6-1.3
	c0.1-0.5,0.2-1,0.2-1.4c0-0.4-0.1-0.8-0.2-1c-0.2-0.2-0.4-0.4-0.7-0.4c-0.4,0-0.7,0.2-1.1,0.6c-0.3,0.4-0.6,0.9-0.8,1.5
	c-0.2,0.6-0.3,1.2-0.3,1.6C86.6,66.8,86.9,67.3,87.6,67.3"/>
<path class="st0" d="M95,66.7c-0.8,0.7-1.3,1.1-1.7,1.1c-0.2,0-0.3-0.1-0.3-0.3c0,0,0-0.1,0-0.2c0-0.1,0.1-0.3,0.2-0.6l0.6-1.7
	c0-0.1,0-0.1,0-0.2c0-0.1,0-0.1-0.1-0.1c-0.1,0-0.2,0.1-0.4,0.3c-0.2,0.2-0.4,0.4-0.5,0.6c-0.2,0.2-0.3,0.5-0.4,0.7
	c-0.1,0.2-0.2,0.7-0.4,1.4c-0.5,0-0.8,0-1,0c0.4-1.3,0.7-2.2,0.8-2.6c0-0.1,0-0.1,0-0.2c0-0.1,0-0.1-0.1-0.1c0,0-0.1,0-0.2,0.1
	c-0.1,0.1-0.2,0.1-0.2,0.2l-0.2-0.2c0.8-0.8,1.3-1.1,1.6-1.1c0.1,0,0.2,0.1,0.2,0.2c0,0.2-0.2,0.7-0.5,1.4l0,0
	c0.8-1.1,1.5-1.7,2.1-1.7c0.3,0,0.4,0.1,0.4,0.4c0,0.1,0,0.2,0,0.3l-0.7,2.2c0,0.1,0,0.1,0,0.1c0,0.1,0,0.1,0.1,0.1
	c0.1,0,0.3-0.1,0.5-0.3L95,66.7z"/>
<path class="st0" d="M98.1,66.9c-0.7,0.6-1.3,0.9-1.8,0.9c-0.3,0-0.5-0.1-0.6-0.3c-0.2-0.2-0.2-0.5-0.2-0.9c0-0.7,0.3-1.3,0.8-1.9
	c0.5-0.6,1.1-0.9,1.9-0.9c0.4,0,0.7,0.2,0.7,0.5c0,0.4-0.2,0.7-0.5,1c-0.4,0.3-0.9,0.5-1.7,0.7c0,0.1,0,0.2,0,0.3
	c0,0.5,0.2,0.8,0.5,0.8c0.1,0,0.2,0,0.4-0.1c0.1-0.1,0.3-0.2,0.6-0.3L98.1,66.9z M96.5,65.6c0.4-0.1,0.8-0.3,1-0.5
	c0.2-0.2,0.3-0.4,0.3-0.7c0-0.2-0.1-0.3-0.2-0.3c-0.2,0-0.4,0.1-0.5,0.3C96.8,64.7,96.7,65.1,96.5,65.6"/>
<path class="st0" d="M105.5,62.1c-0.1,0.4-0.2,0.8-0.3,1.3c0,0.1,0,0.1,0,0.1l-0.4,0c0-0.5,0-0.8-0.1-1c0-0.2-0.1-0.3-0.3-0.3
	c-0.2-0.1-0.3-0.1-0.5-0.1c-0.3,0-0.5,0.1-0.6,0.2c-0.2,0.2-0.2,0.3-0.2,0.6c0,0.2,0.1,0.3,0.2,0.5s0.3,0.4,0.7,0.8
	c0.3,0.3,0.6,0.6,0.7,0.9c0.1,0.2,0.2,0.5,0.2,0.8c0,0.5-0.2,1-0.6,1.4c-0.4,0.4-1,0.6-1.7,0.6c-0.6,0-1.1-0.1-1.7-0.4
	c0.2-0.5,0.3-1.1,0.5-1.7h0.4c0,0.3,0,0.5,0,0.6c0,0.2,0,0.4,0.1,0.5c0,0.1,0.1,0.2,0.2,0.3c0.1,0.1,0.2,0.1,0.3,0.2
	c0.1,0,0.2,0,0.3,0c0.3,0,0.5-0.1,0.7-0.3c0.2-0.2,0.3-0.5,0.3-0.8c0-0.2,0-0.4-0.1-0.6c-0.1-0.2-0.3-0.5-0.7-0.8
	c-0.3-0.3-0.6-0.6-0.7-0.8s-0.2-0.4-0.2-0.7c0-0.4,0.2-0.8,0.6-1.1c0.4-0.3,0.9-0.5,1.5-0.5C104.5,61.7,105.1,61.8,105.5,62.1"/>
<path class="st0" d="M109.5,63.8c-0.3,0.8-0.5,1.5-0.7,2.1c-0.2,0.5-0.2,0.8-0.2,0.9c0,0.1,0,0.1,0.1,0.1c0.1,0,0.2-0.1,0.5-0.4
	l0.2,0.2c-0.3,0.3-0.6,0.6-0.9,0.8c-0.3,0.2-0.5,0.3-0.7,0.3c-0.2,0-0.3-0.1-0.3-0.2c0-0.1,0.1-0.4,0.2-0.7c0.1-0.4,0.2-0.6,0.2-0.7
	l0,0c-0.8,1.1-1.5,1.6-2.1,1.6c-0.2,0-0.4-0.1-0.4-0.3c0-0.1,0-0.3,0.1-0.4l0.3-1.1c0.2-0.5,0.3-0.8,0.3-0.9c0-0.1,0-0.2,0-0.2
	c0-0.1,0-0.1-0.1-0.1c0,0-0.2,0.1-0.4,0.3l-0.2-0.2c0.8-0.8,1.3-1.1,1.6-1.1c0.2,0,0.2,0.1,0.2,0.2c0,0.2-0.1,0.7-0.4,1.4
	c-0.1,0.2-0.2,0.5-0.3,0.8c-0.1,0.3-0.1,0.5-0.1,0.5c0,0.1,0,0.1,0.1,0.1c0.1,0,0.2-0.1,0.4-0.3c0.2-0.2,0.4-0.4,0.6-0.6
	c0.2-0.2,0.3-0.5,0.4-0.7c0.1-0.2,0.2-0.7,0.4-1.3C108.8,63.9,109.1,63.9,109.5,63.8"/>
<path class="st0" d="M113.1,63.8c-0.1,0.3-0.3,0.7-0.4,1.1l-0.3,0c0-0.1-0.1-0.1-0.1-0.1c-0.1,0-0.2,0.1-0.4,0.2
	c-0.1,0.2-0.3,0.4-0.5,0.7c-0.2,0.3-0.3,0.5-0.4,0.7c-0.1,0.2-0.2,0.5-0.4,1.1c0,0.1,0,0.1,0,0.1c-0.4,0-0.8,0-1,0
	c0.6-1.7,0.9-2.6,0.9-2.8c0-0.1,0-0.1-0.1-0.1s-0.2,0.1-0.4,0.3l-0.2-0.2c0.4-0.4,0.7-0.6,1-0.8c0.3-0.2,0.5-0.3,0.6-0.3
	c0.1,0,0.2,0.1,0.2,0.2c0,0.1,0,0.3-0.1,0.4l-0.5,1.5l0,0c0.5-0.9,0.8-1.5,1-1.7c0.2-0.3,0.5-0.4,0.7-0.4
	C112.8,63.7,112.9,63.8,113.1,63.8"/>
<path class="st0" d="M116.6,63.9c-0.1,0.1-0.2,0.2-0.2,0.4c-0.1,0-0.3,0-0.4,0c0.1,0.2,0.1,0.3,0.1,0.5c0,0.4-0.2,0.8-0.5,1.1
	c-0.3,0.4-0.8,0.6-1.5,0.6c-0.1,0.2-0.2,0.3-0.2,0.3c0,0.1,0.1,0.1,0.2,0.2c0.3,0.1,0.6,0.2,0.9,0.4c0.3,0.1,0.5,0.3,0.6,0.4
	c0.1,0.1,0.2,0.2,0.2,0.4c0,0.4-0.2,0.7-0.6,0.9c-0.4,0.2-0.9,0.3-1.6,0.3c-0.5,0-0.9-0.1-1.3-0.2c-0.3-0.2-0.5-0.3-0.5-0.5
	c0-0.2,0.1-0.3,0.2-0.4c0.2-0.1,0.5-0.3,1-0.5c-0.1-0.1-0.2-0.2-0.2-0.3c0-0.2,0.3-0.5,0.8-0.9c0.1,0,0.1-0.1,0.1-0.1
	c-0.6-0.1-0.9-0.4-0.9-1c0-0.5,0.2-0.9,0.5-1.2c0.4-0.4,0.8-0.5,1.4-0.5c0.2,0,0.4,0,0.6,0.1c0.1,0,0.1,0,0.1,0
	C115.9,63.9,116.2,63.9,116.6,63.9L116.6,63.9z M113.4,67.9c-0.4,0.2-0.6,0.4-0.6,0.6c0,0.1,0.1,0.3,0.3,0.4
	c0.2,0.1,0.5,0.1,0.7,0.1c0.2,0,0.5,0,0.6-0.1c0.2-0.1,0.3-0.2,0.3-0.3c0-0.1-0.1-0.2-0.2-0.2L113.4,67.9z M114.3,66.2
	c0.2,0,0.4-0.2,0.6-0.5c0.2-0.4,0.2-0.7,0.2-1.1c0-0.4-0.1-0.5-0.4-0.5c-0.2,0-0.4,0.2-0.6,0.6c-0.2,0.4-0.2,0.8-0.2,1.1
	C113.9,66,114,66.2,114.3,66.2"/>
<path class="st0" d="M119,66.9c-0.7,0.6-1.3,0.9-1.8,0.9c-0.3,0-0.5-0.1-0.6-0.3c-0.2-0.2-0.2-0.5-0.2-0.9c0-0.7,0.3-1.3,0.8-1.9
	c0.5-0.6,1.1-0.9,1.9-0.9c0.4,0,0.7,0.2,0.7,0.5c0,0.4-0.2,0.7-0.5,1c-0.4,0.3-0.9,0.5-1.7,0.7c0,0.1,0,0.2,0,0.3
	c0,0.5,0.2,0.8,0.5,0.8c0.1,0,0.2,0,0.4-0.1c0.1-0.1,0.3-0.2,0.6-0.3L119,66.9z M117.4,65.6c0.4-0.1,0.8-0.3,1-0.5
	c0.2-0.2,0.3-0.4,0.3-0.7c0-0.2-0.1-0.3-0.2-0.3c-0.2,0-0.4,0.1-0.5,0.3S117.6,65.1,117.4,65.6"/>
<path class="st0" d="M123,63.8c-0.1,0.3-0.3,0.7-0.4,1.1l-0.3,0c0-0.1-0.1-0.1-0.1-0.1c-0.1,0-0.2,0.1-0.4,0.2s-0.3,0.4-0.5,0.7
	c-0.2,0.3-0.3,0.5-0.4,0.7c-0.1,0.2-0.2,0.5-0.4,1.1c0,0.1,0,0.1,0,0.1c-0.4,0-0.8,0-1,0c0.6-1.7,0.9-2.6,0.9-2.8
	c0-0.1,0-0.1-0.1-0.1s-0.2,0.1-0.4,0.3l-0.2-0.2c0.4-0.4,0.7-0.6,1-0.8c0.3-0.2,0.5-0.3,0.6-0.3c0.1,0,0.2,0.1,0.2,0.2
	c0,0.1,0,0.3-0.1,0.4l-0.6,1.5l0,0c0.5-0.9,0.8-1.5,1-1.7c0.2-0.3,0.5-0.4,0.7-0.4C122.8,63.7,122.9,63.8,123,63.8"/>
<path class="st0" d="M126.2,63.7c0.3,0.2,0.5,0.4,0.5,0.7c0,0.2-0.1,0.5-0.3,0.8c-0.2,0.3-0.5,0.8-1,1.5c-0.5,0.7-1,1.2-1.3,1.6
	c-0.4,0.4-0.7,0.7-0.9,0.8c-0.2,0.1-0.4,0.2-0.6,0.2c-0.2,0-0.4-0.1-0.6-0.2c0.2-0.3,0.3-0.6,0.4-0.7h0.1c0.1,0.2,0.2,0.2,0.4,0.2
	c0.3,0,0.7-0.3,1.2-0.9c-0.1-1.1-0.1-1.8-0.2-2.2c0-0.4-0.1-0.6-0.1-0.7c0-0.1-0.1-0.2-0.1-0.2c-0.1,0-0.2,0.1-0.4,0.3l-0.2-0.2
	c0.7-0.7,1.2-1.1,1.4-1.1c0.1,0,0.2,0.1,0.3,0.2c0.1,0.1,0.1,0.4,0.2,0.7c0.1,0.3,0.1,1,0.2,2c0.3-0.4,0.6-0.8,0.7-1.1
	c0.2-0.3,0.2-0.6,0.2-0.7c0-0.2-0.1-0.3-0.3-0.3l-0.1-0.2C125.8,64.2,126,64,126.2,63.7"/>
<path class="st0" d="M132.7,64c-0.2,0.5-0.4,1-0.6,1.6c-0.2,0.6-0.3,1-0.3,1.1c0,0.1,0,0.1,0.1,0.1c0.1,0,0.2-0.1,0.5-0.3l0.2,0.2
	c-0.3,0.4-0.7,0.6-0.9,0.8c-0.3,0.2-0.5,0.3-0.6,0.3c-0.1,0-0.2-0.1-0.2-0.2c0-0.1,0.1-0.4,0.2-0.8c0,0,0-0.1,0.1-0.2l0,0
	c-0.3,0.4-0.6,0.7-0.9,0.9c-0.2,0.2-0.4,0.3-0.6,0.3c-0.2,0-0.4-0.1-0.5-0.3c-0.1-0.2-0.2-0.5-0.2-0.8c0-0.7,0.3-1.4,0.8-2
	c0.5-0.6,1.2-0.9,2-0.9c0.1,0,0.3,0,0.7,0c0.1,0,0.2,0,0.2,0L132.7,64z M131.6,64.3c-0.2-0.1-0.3-0.1-0.4-0.1
	c-0.3,0-0.6,0.2-0.9,0.7c-0.3,0.5-0.4,1-0.4,1.5c0,0.3,0.1,0.5,0.3,0.5c0.1,0,0.3-0.1,0.6-0.4c0.2-0.3,0.5-0.9,0.8-1.8L131.6,64.3z"
	/>
<path class="st0" d="M135.9,63.9c-0.1,0.1-0.2,0.3-0.2,0.4c-0.2,0-0.5,0-0.8,0c-0.1,0.3-0.3,0.8-0.4,1.4c-0.2,0.6-0.2,0.9-0.2,1
	c0,0.1,0,0.1,0.1,0.1c0.1,0,0.4-0.2,0.7-0.4l0.2,0.2c-0.4,0.4-0.8,0.7-1.1,0.9c-0.3,0.2-0.6,0.3-0.7,0.3c-0.1,0-0.2,0-0.2-0.1
	c-0.1-0.1-0.1-0.1-0.1-0.3c0-0.1,0-0.3,0.1-0.6l0.7-2.5c-0.2,0-0.4,0-0.5,0l0.1-0.3c0.6-0.2,1.2-0.7,1.6-1.3h0.4
	c-0.2,0.6-0.3,1-0.4,1.2C135.4,63.9,135.7,63.9,135.9,63.9L135.9,63.9z"/>
<path class="st0" d="M141.4,64c-0.2,0.5-0.4,1-0.6,1.6c-0.2,0.6-0.3,1-0.3,1.1c0,0.1,0,0.1,0.1,0.1c0.1,0,0.2-0.1,0.5-0.3l0.2,0.2
	c-0.3,0.4-0.7,0.6-0.9,0.8c-0.3,0.2-0.5,0.3-0.6,0.3c-0.1,0-0.2-0.1-0.2-0.2c0-0.1,0.1-0.4,0.2-0.8c0,0,0-0.1,0.1-0.2l0,0
	c-0.3,0.4-0.6,0.7-0.9,0.9c-0.2,0.2-0.4,0.3-0.6,0.3c-0.2,0-0.4-0.1-0.5-0.3c-0.1-0.2-0.2-0.5-0.2-0.8c0-0.7,0.3-1.4,0.8-2
	c0.5-0.6,1.2-0.9,2-0.9c0.1,0,0.3,0,0.7,0c0.1,0,0.2,0,0.2,0L141.4,64z M140.3,64.3c-0.1-0.1-0.3-0.1-0.4-0.1
	c-0.3,0-0.6,0.2-0.9,0.7c-0.3,0.5-0.4,1-0.4,1.5c0,0.3,0.1,0.5,0.3,0.5c0.1,0,0.3-0.1,0.6-0.4c0.2-0.3,0.5-0.9,0.8-1.8L140.3,64.3z"
	/>
<path class="st0" d="M150,61.8c-0.2,0.5-0.3,1-0.4,1.8h-0.3c0-0.2,0-0.4,0-0.6c0-0.2,0-0.4,0-0.5c0-0.1-0.1-0.1-0.2-0.2
	c-0.1,0-0.2,0-0.5,0H148c-0.3,0.8-0.5,1.8-0.8,3c-0.3,1.1-0.4,1.7-0.4,1.8c0,0.1,0,0.1,0.1,0.1c0,0,0.3,0.1,0.6,0.1c0,0,0,0,0.1,0
	c0,0,0.1,0,0.1,0l-0.1,0.3c-0.7,0-1.2,0-1.5,0c-0.5,0-1,0-1.5,0l0.1-0.3c0.1,0,0.1,0,0.2,0c0.3-0.1,0.5-0.1,0.6-0.1
	c0.1,0,0.1-0.1,0.2-0.2c0-0.1,0.1-0.4,0.3-0.9l0.6-1.9c0.2-0.8,0.4-1.4,0.5-1.9h-0.5c-0.2,0-0.4,0-0.5,0s-0.2,0.1-0.3,0.2
	c-0.1,0.1-0.2,0.3-0.3,0.6c-0.1,0.3-0.2,0.4-0.2,0.4h-0.4c0.2-0.7,0.4-1.2,0.5-1.8c0.6,0,1.4,0,2.4,0
	C148.6,61.9,149.5,61.9,150,61.8"/>
<path class="st0" d="M149.6,64.8c0.8-0.7,1.3-1.1,1.6-1.1c0.1,0,0.2,0.1,0.2,0.2c0,0.1,0,0.3-0.1,0.6l-0.7,2c0,0.1,0,0.1,0,0.2
	c0,0.1,0,0.1,0.1,0.1c0.1,0,0.2-0.1,0.5-0.3l0.2,0.2c-0.3,0.3-0.7,0.6-1,0.8c-0.3,0.2-0.5,0.3-0.7,0.3s-0.2-0.1-0.2-0.2
	c0-0.1,0.1-0.5,0.4-1.2l0.3-0.8c0.1-0.3,0.2-0.5,0.2-0.6c0-0.1,0-0.1-0.1-0.1c-0.1,0-0.2,0.1-0.4,0.3L149.6,64.8z M151.5,61.8
	c0.1,0,0.2,0,0.3,0.1c0.1,0.1,0.1,0.2,0.1,0.3c0,0.2-0.1,0.4-0.2,0.5c-0.1,0.2-0.3,0.3-0.4,0.3c-0.1,0-0.2,0-0.3-0.1
	c-0.1-0.1-0.1-0.2-0.1-0.4c0-0.2,0.1-0.4,0.2-0.5C151.2,61.9,151.3,61.8,151.5,61.8"/>
<path class="st0" d="M157.9,66.7c-0.3,0.3-0.6,0.6-0.9,0.8c-0.3,0.2-0.6,0.3-0.7,0.3c-0.2,0-0.3-0.1-0.3-0.2c0-0.1,0-0.3,0.1-0.6
	c0.1-0.3,0.2-0.6,0.3-0.9c0.1-0.2,0.1-0.4,0.2-0.7c0.1-0.3,0.1-0.5,0.1-0.5c0-0.1,0-0.1-0.1-0.1c-0.1,0-0.3,0.2-0.6,0.5
	c-0.3,0.3-0.5,0.6-0.6,0.9c-0.1,0.3-0.3,0.8-0.5,1.6c-0.5,0-0.8,0-1,0c0.6-1.7,0.8-2.6,0.8-2.8c0-0.1,0-0.1-0.1-0.1
	c-0.1,0-0.3,0.2-0.5,0.5s-0.5,0.6-0.6,0.9c-0.1,0.3-0.3,0.8-0.5,1.5c0,0.1,0,0.1,0,0.1c-0.5,0-0.8,0-1,0c0.2-0.5,0.4-1.1,0.6-1.8
	c0.2-0.6,0.3-1,0.3-1c0-0.1,0-0.1-0.1-0.1c0,0-0.1,0-0.1,0.1l-0.3,0.3l-0.2-0.2c0.4-0.4,0.7-0.7,1-0.9c0.3-0.2,0.5-0.3,0.7-0.3
	c0.1,0,0.2,0.1,0.2,0.2c0,0.3-0.2,0.8-0.5,1.4l0,0c0.9-1.1,1.5-1.7,2-1.7c0.2,0,0.3,0.1,0.3,0.3c0,0.2-0.1,0.7-0.4,1.3l0,0
	c0.8-1.1,1.5-1.7,2.1-1.7c0.3,0,0.4,0.1,0.4,0.4c0,0.1,0,0.2,0,0.3l-0.7,2.1c0,0.1,0,0.1,0,0.2c0,0.1,0,0.1,0.1,0.1
	c0.1,0,0.2-0.1,0.5-0.4L157.9,66.7z"/>
<path class="st0" d="M160.9,66.9c-0.7,0.6-1.3,0.9-1.8,0.9c-0.3,0-0.5-0.1-0.6-0.3c-0.2-0.2-0.2-0.5-0.2-0.9c0-0.7,0.3-1.3,0.8-1.9
	c0.5-0.6,1.1-0.9,1.9-0.9c0.4,0,0.7,0.2,0.7,0.5c0,0.4-0.2,0.7-0.5,1c-0.4,0.3-0.9,0.5-1.7,0.7c0,0.1,0,0.2,0,0.3
	c0,0.5,0.2,0.8,0.5,0.8c0.1,0,0.2,0,0.4-0.1c0.1-0.1,0.3-0.2,0.6-0.3L160.9,66.9z M159.3,65.6c0.4-0.1,0.7-0.3,1-0.5
	c0.2-0.2,0.3-0.4,0.3-0.7c0-0.2-0.1-0.3-0.2-0.3c-0.2,0-0.4,0.1-0.5,0.3C159.7,64.7,159.5,65.1,159.3,65.6"/>
</svg>
