<?xml version="1.0" encoding="utf-8"?>
<!-- Generator: Adobe Illustrator 15.0.2, SVG Export Plug-In . SVG Version: 6.00 Build 0)  -->
<!DOCTYPE svg PUBLIC "-//W3C//DTD SVG 1.1//EN" "http://www.w3.org/Graphics/SVG/1.1/DTD/svg11.dtd">
<svg version="1.1" xmlns="http://www.w3.org/2000/svg" xmlns:xlink="http://www.w3.org/1999/xlink" x="0px" y="0px"
	 width="251.333px" height="97.333px" viewBox="0 0 251.333 97.333" enable-background="new 0 0 251.333 97.333"
	 xml:space="preserve">
<g id="Background">
</g>
<g id="Logo">
	<path fill="#552988" d="M4.989,33.935c-0.125-3.15-0.26-6.364-0.409-9.639c1.191,0.1,2.394,0.186,3.61,0.261
		c1.215,0.074,2.419,0.112,3.609,0.112c0.597,0,1.314-0.024,2.158-0.074c0.844-0.048,1.701-0.086,2.568-0.113
		c0.868-0.024,1.7-0.061,2.494-0.111c0.793-0.048,1.463-0.075,2.01-0.075c0.745,0,1.663,0.027,2.753,0.075
		c1.092,0.051,2.245,0.2,3.462,0.448c1.215,0.248,2.418,0.621,3.609,1.115c1.191,0.499,2.271,1.217,3.239,2.16
		c0.968,0.943,1.749,2.122,2.344,3.535c0.597,1.414,0.894,3.165,0.894,5.248c0,3.276-0.707,5.932-2.121,7.964
		c-1.414,2.036-3.151,3.624-5.209,4.764c-2.061,1.143-4.244,1.912-6.55,2.308c-2.308,0.398-4.355,0.596-6.142,0.596
		c-1.142,0-2.184-0.012-3.126-0.037c-0.944-0.026-1.911-0.088-2.902-0.188v4.095c0,3.274,0.061,6.501,0.186,9.676
		c0.124,3.176,0.26,6.303,0.409,9.379c-1.143-0.102-2.357-0.148-3.647-0.148c-1.292,0-2.506,0.047-3.648,0.148
		c0.149-3.076,0.285-6.203,0.409-9.379c0.124-3.175,0.186-6.402,0.186-9.676V43.574C5.175,40.299,5.113,37.087,4.989,33.935z
		 M16.563,49.752c1.537,0,3.126-0.173,4.764-0.521c1.638-0.346,3.137-0.979,4.502-1.897c1.365-0.918,2.482-2.183,3.351-3.796
		c0.867-1.612,1.302-3.684,1.302-6.216c0-2.133-0.298-3.872-0.893-5.21c-0.596-1.341-1.428-2.382-2.493-3.125
		c-1.068-0.745-2.371-1.253-3.909-1.527c-1.538-0.272-3.275-0.409-5.209-0.409h-6.699v22.106
		C12.966,49.555,14.727,49.752,16.563,49.752z"/>
	<path fill="#552988" d="M126.245,73.683c-0.968,0.473-2.135,0.893-3.5,1.266c-1.365,0.375-2.893,0.707-4.578,1.006
		c-1.687,0.297-3.449,0.447-5.284,0.447c-3.92,0-7.544-0.561-10.866-1.676c-3.326-1.117-6.192-2.816-8.6-5.098
		c-2.406-2.283-4.291-5.074-5.656-8.375c-1.365-3.3-2.047-7.058-2.047-11.277c0-4.217,0.682-7.976,2.047-11.277
		c1.365-3.299,3.275-6.09,5.732-8.374c2.457-2.282,5.396-4.02,8.82-5.21c3.424-1.191,7.193-1.787,11.314-1.787
		c3.275,0,6.264,0.335,8.97,1.004c2.704,0.669,5.099,1.477,7.183,2.419c-0.396,0.696-0.721,1.638-0.969,2.828
		c-0.248,1.191-0.445,2.185-0.594,2.978l-0.447,0.149c-0.496-0.595-1.19-1.266-2.084-2.01c-0.893-0.745-1.936-1.462-3.127-2.158
		c-1.191-0.694-2.531-1.276-4.021-1.75c-1.487-0.47-3.125-0.707-4.911-0.707c-2.929,0-5.646,0.474-8.15,1.414
		c-2.508,0.945-4.689,2.396-6.551,4.355c-1.861,1.962-3.312,4.442-4.354,7.444c-1.042,3.003-1.562,6.563-1.562,10.682
		c0,4.12,0.521,7.679,1.562,10.682c1.042,3.003,2.493,5.483,4.354,7.443c1.861,1.961,4.043,3.412,6.551,4.355
		c2.504,0.941,5.222,1.412,8.15,1.412c1.786,0,3.434-0.223,4.949-0.668c1.513-0.447,2.903-0.979,4.168-1.602
		c1.266-0.619,2.407-1.29,3.424-2.009c1.018-0.72,1.873-1.352,2.568-1.897l0.299,0.297l-0.67,4.393
		C127.918,72.777,127.211,73.212,126.245,73.683z"/>
	<path fill="#552988" d="M139.342,33.935c-0.123-3.15-0.258-6.364-0.408-9.639c0.645,0.1,1.266,0.186,1.861,0.261
		c0.596,0.074,1.191,0.112,1.787,0.112s1.191-0.038,1.785-0.112c0.596-0.075,1.215-0.161,1.861-0.261
		c-0.148,3.275-0.285,6.489-0.408,9.639c-0.125,3.152-0.188,6.364-0.188,9.64v12.804c0,3.274,0.062,6.501,0.188,9.676
		c0.123,3.176,0.26,6.303,0.408,9.379c-1.141-0.102-2.357-0.148-3.646-0.148c-1.291,0-2.508,0.047-3.648,0.148
		c0.15-3.076,0.285-6.203,0.408-9.379c0.125-3.175,0.188-6.402,0.188-9.676V43.574C139.53,40.299,139.467,37.087,139.342,33.935z"/>
	<path fill="#552988" d="M158.633,33.935c-0.123-3.15-0.26-6.364-0.408-9.639c1.438,0.1,2.852,0.186,4.242,0.261
		c1.389,0.074,2.803,0.112,4.242,0.112s2.852-0.062,4.244-0.187c1.387-0.122,2.803-0.186,4.242-0.186
		c2.084,0,4.068,0.199,5.953,0.597c1.885,0.397,3.537,1.055,4.951,1.971c1.414,0.919,2.531,2.123,3.35,3.609
		c0.818,1.49,1.229,3.351,1.229,5.585c0,2.381-0.533,4.428-1.602,6.141c-1.066,1.71-2.369,3.126-3.908,4.242
		c-1.537,1.116-3.189,1.985-4.949,2.605c-1.762,0.621-3.361,1.03-4.801,1.228c0.598,0.745,1.414,1.787,2.457,3.127
		c1.041,1.34,2.207,2.817,3.496,4.427c1.293,1.615,2.633,3.302,4.021,5.062c1.389,1.762,2.729,3.452,4.02,5.061
		c1.291,1.613,2.506,3.09,3.646,4.432c1.141,1.338,2.059,2.357,2.754,3.051c-0.744-0.102-1.488-0.148-2.232-0.148s-1.488,0-2.232,0
		c-0.695,0-1.414,0-2.158,0c-0.746,0-1.465,0.047-2.16,0.148c-0.742-1.043-1.873-2.605-3.387-4.689
		c-1.514-2.083-3.189-4.317-5.025-6.699c-1.834-2.382-3.709-4.751-5.617-7.109c-1.91-2.355-3.66-4.355-5.248-5.992h-2.83v5.435
		c0,3.274,0.062,6.501,0.188,9.676c0.123,3.176,0.26,6.303,0.408,9.379c-1.141-0.102-2.357-0.148-3.646-0.148
		c-1.291,0-2.508,0.047-3.646,0.148c0.148-3.076,0.285-6.203,0.408-9.379c0.123-3.175,0.186-6.402,0.186-9.676V43.574
		C158.819,40.299,158.756,37.087,158.633,33.935z M167.194,48.116c0.82,0.049,1.723,0.074,2.717,0.074
		c1.537,0,3.137-0.172,4.801-0.521c1.662-0.346,3.189-0.954,4.578-1.824c1.389-0.867,2.543-2.034,3.461-3.498
		c0.918-1.463,1.377-3.312,1.377-5.546c0-1.934-0.361-3.535-1.078-4.8c-0.721-1.266-1.652-2.271-2.793-3.014
		c-1.141-0.745-2.381-1.253-3.721-1.527c-1.34-0.272-2.656-0.409-3.945-0.409c-1.738,0-3.176,0.037-4.316,0.111
		c-1.143,0.075-2.111,0.163-2.904,0.261c-0.1,2.729-0.199,5.434-0.297,8.113c-0.1,2.679-0.15,5.359-0.15,8.039v4.244
		C165.618,47.966,166.375,48.066,167.194,48.116z"/>
	<linearGradient id="SVGID_1_" gradientUnits="userSpaceOnUse" x1="58.3901" y1="39.8091" x2="223.9467" y2="39.8091">
		<stop  offset="0" style="stop-color:#939598"/>
		<stop  offset="0.5076" style="stop-color:#FFFFFF"/>
		<stop  offset="1" style="stop-color:#808080"/>
	</linearGradient>
	<path fill="url(#SVGID_1_)" d="M246.278,74.916C129.592-84.938,36.643,75.578,36.643,75.578s94.395-144,209.635-0.652V74.916z"/>
	<path fill="#552988" d="M81.061,70.222c-1.018-2.281-2.158-4.875-3.423-7.779c-1.266-2.902-2.618-6.04-4.057-9.416
		c-1.44-3.374-2.88-6.773-4.317-10.197c-1.439-3.425-2.855-6.812-4.242-10.161c-1.39-3.35-2.68-6.463-3.871-9.341h-1.414
		c-3.871,8.883-7.719,17.616-11.537,26.201c-3.822,8.586-7.742,17.22-11.762,25.904c0.844-0.102,1.762-0.148,2.754-0.148
		s1.91,0.047,2.755,0.148c0.644-2.281,1.61-5.175,2.902-8.673c1.231-3.34,2.603-6.853,4.106-10.532l-0.037,0l1.9-4.503l7.875-18.348
		l8.262,18.906l1.372,4.239h-0.005c0.553,1.396,1.136,2.84,1.76,4.358c0.744,1.812,1.477,3.599,2.196,5.36
		c0.718,1.763,1.378,3.449,1.972,5.062c0.596,1.613,1.068,2.99,1.415,4.131c0.694-0.102,1.352-0.148,1.973-0.148
		c0.62,0,1.276,0,1.972,0c0.694,0,1.352,0,1.974,0c0.618,0,1.276,0.047,1.973,0.148C82.911,74.244,82.079,72.505,81.061,70.222z"/>
	<path fill="#552988" d="M244.514,70.222c-1.018-2.281-2.158-4.875-3.424-7.779c-1.266-2.902-2.617-6.04-4.057-9.416
		c-1.439-3.374-2.879-6.773-4.318-10.197c-1.439-3.425-2.854-6.812-4.242-10.161c-1.391-3.35-2.68-6.463-3.869-9.341h-1.416
		c-3.869,8.883-7.717,17.616-11.537,26.201c-3.822,8.586-7.74,17.22-11.762,25.904c0.846-0.102,1.762-0.148,2.756-0.148
		c0.992,0,1.91,0.047,2.754,0.148c0.645-2.281,1.611-5.175,2.902-8.673c1.23-3.34,2.602-6.853,4.105-10.532l-0.035,0l1.9-4.503
		l7.875-18.348l8.26,18.906l1.373,4.239h-0.006c0.555,1.396,1.135,2.84,1.76,4.358c0.744,1.812,1.477,3.599,2.197,5.36
		c0.717,1.763,1.377,3.449,1.971,5.062c0.598,1.613,1.068,2.99,1.416,4.131c0.693-0.102,1.352-0.148,1.973-0.148s1.277,0,1.973,0
		c0.693,0,1.35,0,1.973,0c0.619,0,1.275,0.047,1.971,0.148C246.362,74.244,245.53,72.505,244.514,70.222z"/>
	<path fill="#808080" d="M4.76,86.892C4.745,86.398,4.721,85.9,4.69,85.4c0.132,0.016,0.273,0.029,0.427,0.039
		c0.153,0.014,0.327,0.018,0.519,0.018c0.27,0,0.548-0.008,0.835-0.027C6.76,85.41,7.043,85.4,7.319,85.4
		c0.546,0,0.973,0.039,1.28,0.121c0.308,0.08,0.549,0.197,0.725,0.352c0.246,0.201,0.428,0.422,0.543,0.668s0.173,0.543,0.173,0.889
		c0,0.438-0.073,0.814-0.219,1.129c-0.146,0.316-0.351,0.572-0.617,0.768c-0.266,0.197-0.578,0.34-0.94,0.434
		c-0.359,0.092-0.756,0.139-1.187,0.139H6.488c0,0.574,0.006,1.15,0.018,1.723c0.012,0.574,0.037,1.141,0.075,1.701
		c-0.131-0.016-0.273-0.023-0.427-0.023c-0.154,0-0.327,0-0.518,0c-0.192,0-0.365,0-0.519,0c-0.154,0-0.295,0.008-0.427,0.023
		c0.031-0.477,0.055-0.963,0.07-1.459c0.015-0.496,0.023-1.062,0.023-1.701v-1.568C4.783,87.957,4.774,87.388,4.76,86.892z
		 M8.121,86.875c-0.065-0.199-0.154-0.357-0.266-0.477c-0.111-0.121-0.242-0.207-0.392-0.262c-0.15-0.053-0.305-0.08-0.467-0.08
		H6.73c-0.039,0-0.078,0-0.116,0c-0.038,0-0.072,0.004-0.103,0.012c-0.007,0.553-0.013,1.098-0.017,1.631
		c-0.004,0.535-0.006,1.072-0.006,1.609c0.193,0,0.391-0.02,0.594-0.057c0.205-0.039,0.39-0.117,0.559-0.238
		c0.169-0.117,0.308-0.289,0.416-0.512c0.108-0.223,0.162-0.52,0.162-0.889C8.219,87.322,8.186,87.076,8.121,86.875z"/>
	<path fill="#808080" d="M21.399,89.476c-0.293-0.012-0.586-0.018-0.878-0.018c-0.292,0-0.584,0.004-0.876,0.012
		c-0.292,0.008-0.584,0.018-0.876,0.035v0.656c0,0.639,0.007,1.205,0.023,1.701c0.015,0.496,0.039,0.982,0.068,1.459
		c-0.13-0.016-0.272-0.023-0.426-0.023c-0.154,0-0.325,0-0.518,0s-0.366,0-0.52,0s-0.297,0.008-0.425,0.023
		c0.03-0.477,0.052-0.963,0.069-1.459c0.015-0.496,0.022-1.062,0.022-1.701v-1.568c0-0.637-0.007-1.205-0.022-1.701
		c-0.017-0.494-0.039-0.992-0.069-1.492c0.128,0.016,0.272,0.029,0.425,0.039c0.153,0.014,0.327,0.018,0.52,0.018
		s0.364-0.004,0.518-0.018c0.154-0.01,0.296-0.023,0.426-0.039c-0.038,0.5-0.063,0.994-0.074,1.482
		c-0.012,0.488-0.018,1.051-0.018,1.688c0.2,0.008,0.441,0.016,0.722,0.018c0.281,0.004,0.627,0.006,1.043,0.006
		c0.415,0,0.753-0.002,1.013-0.006c0.263-0.002,0.505-0.01,0.728-0.018c0-0.637-0.007-1.199-0.022-1.688s-0.039-0.982-0.07-1.482
		c0.131,0.016,0.273,0.029,0.427,0.039c0.155,0.014,0.326,0.018,0.519,0.018c0.193,0,0.366-0.004,0.519-0.018
		c0.154-0.01,0.297-0.023,0.427-0.039c-0.031,0.5-0.055,0.998-0.069,1.492c-0.015,0.496-0.022,1.064-0.022,1.701v1.568
		c0,0.639,0.007,1.205,0.022,1.701c0.015,0.496,0.039,0.982,0.069,1.459c-0.13-0.016-0.273-0.023-0.427-0.023
		c-0.153,0-0.326,0-0.519,0c-0.192,0-0.364,0-0.519,0c-0.154,0-0.296,0.008-0.427,0.023c0.031-0.477,0.055-0.963,0.07-1.459
		s0.022-1.062,0.022-1.701v-0.656C21.982,89.498,21.691,89.488,21.399,89.476z"/>
	<path fill="#808080" d="M38.303,93.322c-0.185-0.016-0.359-0.023-0.525-0.023c-0.165,0-0.328,0-0.489,0c-0.162,0-0.324,0-0.491,0
		c-0.166,0-0.327,0.008-0.488,0.023c-0.125-0.377-0.252-0.762-0.382-1.154c-0.131-0.391-0.271-0.783-0.415-1.176
		c-0.245-0.008-0.492-0.012-0.737-0.016c-0.247-0.006-0.493-0.008-0.738-0.008c-0.2,0-0.399,0.002-0.6,0.008
		c-0.2,0.004-0.399,0.008-0.6,0.016c-0.153,0.393-0.295,0.785-0.426,1.176c-0.13,0.393-0.25,0.777-0.357,1.154
		c-0.091-0.016-0.183-0.023-0.271-0.023s-0.179,0-0.271,0c-0.092,0-0.184,0-0.277,0c-0.092,0-0.192,0.008-0.299,0.023
		c0.091-0.201,0.215-0.477,0.368-0.83c0.154-0.354,0.323-0.754,0.508-1.199c0.185-0.445,0.382-0.926,0.593-1.438
		c0.212-0.51,0.423-1.025,0.635-1.549c0.211-0.523,0.418-1.039,0.623-1.547c0.203-0.506,0.389-0.979,0.559-1.418
		c0.076,0.016,0.15,0.031,0.219,0.041c0.069,0.014,0.143,0.018,0.219,0.018c0.078,0,0.15-0.004,0.22-0.018
		c0.069-0.01,0.142-0.025,0.219-0.041c0.247,0.654,0.51,1.354,0.789,2.1c0.28,0.744,0.563,1.477,0.849,2.197
		c0.283,0.719,0.561,1.4,0.831,2.047C37.834,92.33,38.081,92.875,38.303,93.322z M34.221,87.566
		c-0.201,0.461-0.389,0.918-0.564,1.367c-0.178,0.451-0.352,0.91-0.52,1.377h2.111c-0.17-0.467-0.339-0.926-0.502-1.377
		C34.58,88.484,34.407,88.027,34.221,87.566z"/>
	<path fill="#808080" d="M46.963,89.689v0.473c0,0.639,0.006,1.205,0.022,1.701s0.038,0.982,0.069,1.459
		c-0.131-0.016-0.273-0.023-0.426-0.023c-0.154,0-0.328,0-0.52,0s-0.365,0-0.52,0c-0.153,0-0.296,0.008-0.426,0.023
		c0.029-0.477,0.053-0.963,0.068-1.459s0.023-1.062,0.023-1.701v-1.568c0-0.637-0.008-1.205-0.023-1.701
		c-0.016-0.494-0.039-0.992-0.068-1.492c0.13,0.016,0.272,0.029,0.426,0.039c0.154,0.014,0.328,0.018,0.52,0.018
		c0.207,0,0.443-0.008,0.708-0.027c0.266-0.02,0.595-0.029,0.986-0.029c0.292,0,0.543,0.008,0.751,0.023
		c0.207,0.014,0.385,0.037,0.535,0.068s0.281,0.07,0.393,0.121s0.217,0.109,0.316,0.178c0.231,0.17,0.414,0.379,0.547,0.629
		c0.136,0.25,0.203,0.549,0.203,0.895c0,0.562-0.154,1.02-0.462,1.373s-0.749,0.602-1.325,0.75c0.369,0.652,0.764,1.303,1.188,1.953
		c0.422,0.648,0.846,1.293,1.268,1.932c-0.176-0.016-0.349-0.023-0.518-0.023c-0.17,0-0.344,0-0.519,0c-0.179,0-0.353,0-0.525,0
		s-0.349,0.008-0.524,0.023l-2.065-3.633H46.963z M48.681,86.759c-0.069-0.199-0.175-0.352-0.317-0.455s-0.327-0.17-0.555-0.201
		c-0.226-0.029-0.496-0.047-0.812-0.047c-0.022,1.047-0.034,2.092-0.034,3.137c0.046,0.008,0.09,0.014,0.133,0.018
		c0.041,0.004,0.081,0.006,0.12,0.006c0.507,0,0.896-0.137,1.165-0.41c0.268-0.271,0.402-0.686,0.402-1.24
		C48.784,87.23,48.75,86.96,48.681,86.759z"/>
	<path fill="#808080" d="M58.713,90.738c-0.062,0.861-0.123,1.723-0.186,2.584c-0.092-0.016-0.184-0.023-0.275-0.023
		s-0.182,0-0.266,0c-0.092,0-0.182,0-0.271,0c-0.088,0-0.179,0.008-0.271,0.023c0.246-1.322,0.464-2.639,0.656-3.945
		c0.194-1.305,0.37-2.631,0.53-3.977c0.086,0.016,0.165,0.029,0.238,0.039c0.072,0.014,0.152,0.018,0.235,0.018
		c0.068,0,0.143-0.004,0.218-0.018c0.078-0.01,0.159-0.023,0.242-0.039c0.209,0.461,0.427,0.93,0.654,1.406
		c0.226,0.477,0.451,0.951,0.678,1.424c0.229,0.475,0.455,0.938,0.682,1.391c0.228,0.453,0.443,0.883,0.652,1.289
		c0.459-0.859,0.92-1.76,1.377-2.701c0.458-0.943,0.893-1.879,1.309-2.809c0.192,0.037,0.357,0.057,0.496,0.057
		c0.131,0,0.292-0.02,0.484-0.057c0.078,0.66,0.159,1.371,0.248,2.133c0.088,0.76,0.174,1.506,0.258,2.232
		c0.086,0.727,0.17,1.404,0.255,2.035c0.085,0.629,0.161,1.137,0.23,1.521c-0.153-0.016-0.31-0.023-0.468-0.023
		c-0.156,0-0.312,0-0.467,0s-0.311,0-0.472,0c-0.163,0-0.323,0.008-0.484,0.023c-0.038-0.791-0.103-1.648-0.19-2.572
		c-0.089-0.922-0.178-1.838-0.271-2.744h-0.021c-0.439,0.906-0.87,1.801-1.292,2.676c-0.425,0.875-0.843,1.756-1.257,2.641
		c-0.039-0.008-0.076-0.014-0.109-0.018c-0.035-0.004-0.071-0.006-0.109-0.006c-0.039,0-0.075,0.002-0.111,0.006
		c-0.033,0.004-0.07,0.01-0.109,0.018c-0.414-0.861-0.827-1.723-1.238-2.584c-0.412-0.861-0.837-1.732-1.275-2.617h-0.023
		C58.868,89.005,58.775,89.876,58.713,90.738z"/>
	<path fill="#808080" d="M80.588,93.322c-0.186-0.016-0.359-0.023-0.525-0.023c-0.164,0-0.328,0-0.49,0c-0.16,0-0.324,0-0.49,0
		c-0.165,0-0.328,0.008-0.49,0.023c-0.123-0.377-0.249-0.762-0.38-1.154c-0.131-0.391-0.271-0.783-0.415-1.176
		c-0.246-0.008-0.492-0.012-0.737-0.016c-0.247-0.006-0.493-0.008-0.739-0.008c-0.2,0-0.399,0.002-0.6,0.008
		c-0.199,0.004-0.399,0.008-0.6,0.016c-0.152,0.393-0.296,0.785-0.426,1.176c-0.131,0.393-0.25,0.777-0.358,1.154
		c-0.093-0.016-0.183-0.023-0.271-0.023s-0.18,0-0.271,0s-0.185,0-0.277,0c-0.092,0-0.191,0.008-0.299,0.023
		c0.094-0.201,0.215-0.477,0.369-0.83c0.153-0.354,0.322-0.754,0.507-1.199s0.384-0.926,0.594-1.438
		c0.212-0.51,0.423-1.025,0.635-1.549c0.211-0.523,0.419-1.039,0.624-1.547c0.203-0.506,0.389-0.979,0.558-1.418
		c0.077,0.016,0.149,0.031,0.22,0.041c0.069,0.014,0.143,0.018,0.217,0.018c0.078,0,0.152-0.004,0.221-0.018
		c0.07-0.01,0.143-0.025,0.22-0.041c0.245,0.654,0.509,1.354,0.79,2.1c0.279,0.744,0.562,1.477,0.848,2.197
		c0.285,0.719,0.561,1.4,0.829,2.047C80.12,92.33,80.366,92.875,80.588,93.322z M76.505,87.566
		c-0.199,0.461-0.388,0.918-0.564,1.367c-0.177,0.451-0.351,0.91-0.52,1.377h2.11c-0.168-0.467-0.337-0.926-0.501-1.377
		C76.866,88.484,76.69,88.027,76.505,87.566z"/>
	<path fill="#808080" d="M93.272,92.509c-0.047,0.164-0.076,0.328-0.094,0.49c-0.621,0.314-1.406,0.473-2.351,0.473
		c-0.669,0-1.268-0.096-1.793-0.283c-0.527-0.188-0.974-0.453-1.339-0.797c-0.365-0.342-0.644-0.746-0.836-1.215
		c-0.19-0.469-0.288-0.977-0.288-1.521c0-0.801,0.124-1.479,0.374-2.037c0.25-0.557,0.585-1.01,1.004-1.359
		c0.42-0.35,0.906-0.605,1.459-0.768s1.134-0.242,1.74-0.242c0.2,0,0.412,0.016,0.636,0.047c0.222,0.029,0.437,0.07,0.646,0.119
		c0.207,0.051,0.405,0.109,0.594,0.182c0.188,0.068,0.346,0.141,0.479,0.217c-0.078,0.193-0.137,0.387-0.178,0.584
		c-0.043,0.195-0.072,0.393-0.088,0.594h-0.161c-0.292-0.371-0.591-0.633-0.899-0.791c-0.309-0.156-0.669-0.236-1.083-0.236
		c-0.309,0-0.617,0.068-0.931,0.207c-0.311,0.139-0.593,0.35-0.846,0.635c-0.254,0.285-0.459,0.646-0.619,1.09
		c-0.156,0.441-0.235,0.971-0.235,1.586c0,0.592,0.081,1.098,0.243,1.516s0.371,0.762,0.629,1.025
		c0.257,0.266,0.547,0.461,0.875,0.584s0.655,0.186,0.986,0.186c0.184,0,0.373-0.023,0.566-0.064c0.191-0.043,0.379-0.1,0.563-0.174
		c0.186-0.072,0.36-0.164,0.524-0.271c0.166-0.107,0.311-0.227,0.434-0.357l0.15,0.094C93.37,92.179,93.317,92.343,93.272,92.509z"
		/>
	<path fill="#808080" d="M100.515,86.892c-0.013-0.494-0.033-0.992-0.062-1.492c0.346,0.008,0.689,0.018,1.027,0.033
		c0.339,0.018,0.68,0.023,1.027,0.023c0.568,0,1.074-0.004,1.516-0.018c0.441-0.01,0.74-0.023,0.894-0.039
		c-0.032,0.123-0.046,0.283-0.046,0.484c0,0.123,0.002,0.219,0.012,0.287c0.007,0.07,0.019,0.146,0.034,0.23
		c-0.224-0.014-0.468-0.029-0.731-0.045c-0.266-0.016-0.524-0.031-0.773-0.047c-0.25-0.016-0.475-0.027-0.674-0.035
		c-0.201-0.008-0.344-0.01-0.428-0.01c-0.031,0.422-0.047,0.842-0.051,1.258c-0.005,0.414-0.007,0.832-0.007,1.256
		c0.499-0.008,0.952-0.02,1.354-0.035c0.404-0.016,0.824-0.035,1.264-0.057c-0.023,0.131-0.041,0.229-0.047,0.299
		c-0.008,0.07-0.012,0.143-0.012,0.219c0,0.062,0.006,0.125,0.018,0.189c0.012,0.066,0.024,0.16,0.041,0.283
		c-0.877-0.068-1.75-0.104-2.618-0.104c0,0.246-0.001,0.492-0.005,0.736c-0.005,0.248-0.006,0.494-0.006,0.74
		c0,0.498,0.011,0.98,0.033,1.441c0.439,0,0.876-0.012,1.314-0.035c0.439-0.023,0.883-0.061,1.327-0.115
		c-0.016,0.084-0.027,0.16-0.034,0.23c-0.01,0.068-0.012,0.166-0.012,0.289s0.002,0.219,0.012,0.287
		c0.007,0.07,0.019,0.127,0.034,0.174c-0.208-0.008-0.464-0.014-0.768-0.018s-0.72-0.006-1.251-0.006c-0.469,0-0.85,0-1.141,0
		c-0.285,0-0.513,0-0.688,0c-0.172,0-0.303,0.002-0.391,0.006c-0.089,0.004-0.164,0.01-0.227,0.018
		c0.028-0.477,0.049-0.963,0.062-1.459s0.021-1.062,0.021-1.701v-1.568C100.537,87.957,100.528,87.388,100.515,86.892z"/>
	<path fill="#808080" d="M114.322,93.316c-0.429-0.104-0.797-0.277-1.112-0.52s-0.564-0.553-0.744-0.934
		c-0.181-0.381-0.271-0.844-0.271-1.391c0-0.307,0.002-0.582,0.006-0.822c0.004-0.242,0.006-0.469,0.006-0.676
		s0.002-0.406,0.006-0.6c0.002-0.191,0.005-0.393,0.005-0.6c0-0.623-0.005-1.127-0.011-1.51c-0.008-0.385-0.02-0.674-0.035-0.865
		c0.155,0.016,0.312,0.029,0.475,0.039c0.162,0.014,0.318,0.018,0.473,0.018c0.152,0,0.311-0.004,0.473-0.018
		c0.16-0.01,0.317-0.023,0.473-0.039c-0.077,0.744-0.125,1.439-0.139,2.082c-0.017,0.641-0.024,1.293-0.024,1.955
		c0,0.699,0.05,1.264,0.152,1.695c0.099,0.428,0.246,0.762,0.442,0.996c0.197,0.234,0.438,0.389,0.722,0.467
		c0.282,0.076,0.614,0.115,0.991,0.115c0.46,0,0.822-0.115,1.084-0.346c0.261-0.23,0.459-0.539,0.593-0.922
		c0.136-0.385,0.216-0.826,0.249-1.322c0.029-0.494,0.045-1.012,0.045-1.551c0-0.529-0.007-1.059-0.023-1.584
		c-0.014-0.527-0.037-1.055-0.068-1.586c0.109,0.016,0.211,0.029,0.312,0.039c0.1,0.014,0.189,0.018,0.275,0.018
		c0.102,0,0.195-0.004,0.289-0.018c0.092-0.01,0.188-0.023,0.289-0.039c-0.017,0.168-0.031,0.395-0.047,0.68
		s-0.031,0.613-0.047,0.986s-0.029,0.783-0.041,1.234c-0.012,0.449-0.016,0.924-0.016,1.424c0,1.336-0.288,2.297-0.865,2.877
		c-0.576,0.58-1.422,0.871-2.537,0.871C115.208,93.472,114.749,93.419,114.322,93.316z"/>
	<path fill="#808080" d="M128.276,86.667c-0.004-0.184-0.016-0.318-0.031-0.402c-0.115,0-0.256,0.002-0.426,0.01
		s-0.351,0.02-0.542,0.029c-0.192,0.012-0.39,0.027-0.589,0.047s-0.384,0.039-0.553,0.062c0.015-0.084,0.027-0.168,0.04-0.254
		c0.012-0.084,0.017-0.168,0.017-0.252c0-0.086-0.005-0.17-0.017-0.254c-0.013-0.086-0.025-0.168-0.04-0.254
		c0.261,0.008,0.498,0.016,0.709,0.023s0.428,0.012,0.646,0.016c0.219,0.006,0.458,0.01,0.716,0.014
		c0.258,0.002,0.566,0.004,0.928,0.004s0.672-0.002,0.928-0.004c0.258-0.004,0.494-0.008,0.709-0.014
		c0.215-0.004,0.426-0.008,0.629-0.016s0.424-0.016,0.662-0.023c-0.014,0.086-0.027,0.168-0.039,0.254
		c-0.01,0.084-0.018,0.168-0.018,0.254c0,0.084,0.008,0.168,0.018,0.252c0.012,0.086,0.025,0.17,0.039,0.254
		c-0.152-0.023-0.326-0.043-0.518-0.062c-0.193-0.02-0.383-0.035-0.572-0.047c-0.188-0.01-0.365-0.021-0.535-0.029
		c-0.168-0.008-0.311-0.01-0.428-0.01c-0.006,0.037-0.012,0.092-0.016,0.16c-0.004,0.07-0.006,0.15-0.006,0.242v0.613v2.881
		c0,0.639,0.008,1.205,0.021,1.701c0.018,0.496,0.041,0.982,0.07,1.459c-0.131-0.016-0.271-0.023-0.428-0.023
		c-0.152,0-0.324,0-0.518,0c-0.191,0-0.365,0-0.52,0s-0.295,0.008-0.426,0.023c0.031-0.477,0.053-0.963,0.068-1.459
		c0.018-0.496,0.025-1.062,0.025-1.701v-2.881C128.282,87.056,128.28,86.853,128.276,86.667z"/>
	<path fill="#808080" d="M139.12,86.892c-0.016-0.494-0.037-0.992-0.068-1.492c0.129,0.016,0.271,0.029,0.426,0.039
		c0.152,0.014,0.326,0.018,0.52,0.018c0.191,0,0.363-0.004,0.518-0.018c0.154-0.01,0.297-0.023,0.428-0.039
		c-0.031,0.5-0.055,0.998-0.07,1.492c-0.016,0.496-0.023,1.064-0.023,1.701v1.568c0,0.639,0.008,1.205,0.023,1.701
		s0.039,0.982,0.07,1.459c-0.131-0.016-0.273-0.023-0.428-0.023s-0.326,0-0.518,0c-0.193,0-0.367,0-0.52,0
		c-0.154,0-0.297,0.008-0.426,0.023c0.031-0.477,0.053-0.963,0.068-1.459s0.023-1.062,0.023-1.701v-1.568
		C139.143,87.957,139.135,87.388,139.12,86.892z"/>
	<path fill="#808080" d="M154.78,92.509c-0.047,0.164-0.078,0.328-0.094,0.49c-0.623,0.314-1.406,0.473-2.352,0.473
		c-0.67,0-1.268-0.096-1.793-0.283c-0.529-0.188-0.973-0.453-1.34-0.797c-0.363-0.342-0.643-0.746-0.834-1.215
		c-0.193-0.469-0.289-0.977-0.289-1.521c0-0.801,0.123-1.479,0.373-2.037c0.25-0.557,0.586-1.01,1.004-1.359
		c0.42-0.35,0.906-0.605,1.459-0.768c0.555-0.162,1.135-0.242,1.742-0.242c0.199,0,0.41,0.016,0.635,0.047
		c0.221,0.029,0.438,0.07,0.645,0.119c0.207,0.051,0.404,0.109,0.594,0.182c0.188,0.068,0.348,0.141,0.479,0.217
		c-0.076,0.193-0.137,0.387-0.18,0.584c-0.041,0.195-0.07,0.393-0.084,0.594h-0.164c-0.289-0.371-0.592-0.633-0.898-0.791
		c-0.307-0.156-0.668-0.236-1.082-0.236c-0.309,0-0.619,0.068-0.93,0.207s-0.594,0.35-0.846,0.635
		c-0.256,0.285-0.461,0.646-0.619,1.09c-0.156,0.441-0.236,0.971-0.236,1.586c0,0.592,0.082,1.098,0.242,1.516
		c0.162,0.418,0.371,0.762,0.629,1.025c0.258,0.266,0.549,0.461,0.875,0.584c0.328,0.123,0.656,0.186,0.986,0.186
		c0.186,0,0.375-0.023,0.564-0.064c0.193-0.043,0.383-0.1,0.566-0.174c0.186-0.072,0.359-0.164,0.525-0.271
		c0.164-0.107,0.307-0.227,0.432-0.357l0.15,0.094C154.877,92.179,154.823,92.343,154.78,92.509z"/>
	<path fill="#808080" d="M168.143,93.322c-0.184-0.016-0.359-0.023-0.525-0.023c-0.164,0-0.326,0-0.488,0s-0.324,0-0.492,0
		c-0.164,0-0.328,0.008-0.49,0.023c-0.121-0.377-0.25-0.762-0.381-1.154c-0.131-0.391-0.268-0.783-0.412-1.176
		c-0.248-0.008-0.494-0.012-0.74-0.016c-0.246-0.006-0.492-0.008-0.736-0.008c-0.201,0-0.4,0.002-0.6,0.008
		c-0.199,0.004-0.398,0.008-0.6,0.016c-0.154,0.393-0.295,0.785-0.428,1.176c-0.131,0.393-0.25,0.777-0.355,1.154
		c-0.096-0.016-0.184-0.023-0.271-0.023c-0.09,0-0.182,0-0.271,0c-0.094,0-0.186,0-0.277,0s-0.193,0.008-0.299,0.023
		c0.092-0.201,0.215-0.477,0.369-0.83c0.152-0.354,0.32-0.754,0.506-1.199s0.385-0.926,0.594-1.438
		c0.211-0.51,0.422-1.025,0.637-1.549c0.209-0.523,0.418-1.039,0.621-1.547c0.203-0.506,0.389-0.979,0.561-1.418
		c0.076,0.016,0.148,0.031,0.219,0.041c0.068,0.014,0.141,0.018,0.217,0.018c0.078,0,0.15-0.004,0.221-0.018
		c0.068-0.01,0.141-0.025,0.217-0.041c0.248,0.654,0.51,1.354,0.791,2.1c0.279,0.744,0.562,1.477,0.848,2.197
		c0.285,0.719,0.561,1.4,0.83,2.047C167.674,92.33,167.92,92.875,168.143,93.322z M164.063,87.566
		c-0.201,0.461-0.391,0.918-0.568,1.367c-0.176,0.451-0.35,0.91-0.518,1.377h2.109c-0.168-0.467-0.336-0.926-0.5-1.377
		C164.42,88.484,164.245,88.027,164.063,87.566z"/>
	<path fill="#808080" d="M175.073,86.892c-0.014-0.494-0.039-0.992-0.068-1.492c0.131,0.016,0.273,0.029,0.426,0.039
		c0.154,0.014,0.326,0.018,0.518,0.018c0.193,0,0.367-0.004,0.521-0.018c0.152-0.01,0.295-0.023,0.426-0.039
		c-0.031,0.5-0.055,0.998-0.068,1.492c-0.016,0.496-0.023,1.064-0.023,1.701v1.568c0,0.439,0.002,0.861,0.006,1.27
		s0.01,0.762,0.018,1.061c0.438,0,0.875-0.012,1.312-0.035c0.439-0.023,0.881-0.061,1.326-0.115c-0.016,0.084-0.027,0.16-0.033,0.23
		c-0.008,0.068-0.012,0.166-0.012,0.289s0.004,0.219,0.012,0.287c0.006,0.07,0.018,0.127,0.033,0.174
		c-0.205-0.008-0.463-0.014-0.766-0.018c-0.305-0.004-0.721-0.006-1.252-0.006c-0.469,0-0.848,0-1.141,0c-0.285,0-0.514,0-0.686,0
		c-0.174,0-0.305,0.002-0.395,0.006c-0.086,0.004-0.162,0.01-0.223,0.018c0.029-0.477,0.055-0.963,0.068-1.459
		c0.016-0.496,0.023-1.062,0.023-1.701v-1.568C175.096,87.957,175.088,87.388,175.073,86.892z"/>
	<path fill="#808080" d="M188.633,85.964c-0.354,0-0.643,0.104-0.865,0.311c-0.223,0.209-0.334,0.451-0.334,0.729
		c0,0.283,0.086,0.516,0.26,0.695c0.172,0.182,0.391,0.346,0.65,0.492c0.264,0.145,0.543,0.285,0.842,0.42
		c0.301,0.135,0.582,0.301,0.842,0.496c0.262,0.197,0.479,0.434,0.652,0.715c0.172,0.281,0.258,0.639,0.258,1.078
		c0,0.383-0.072,0.736-0.217,1.055c-0.146,0.32-0.355,0.594-0.623,0.82c-0.27,0.227-0.592,0.398-0.963,0.518
		c-0.373,0.119-0.791,0.18-1.25,0.18c-0.416,0-0.787-0.045-1.113-0.133c-0.328-0.088-0.576-0.199-0.744-0.33
		c0.076-0.268,0.143-0.514,0.195-0.736s0.1-0.467,0.139-0.729h0.219c0.031,0.17,0.088,0.33,0.174,0.479
		c0.084,0.15,0.191,0.283,0.322,0.398s0.289,0.207,0.473,0.271c0.186,0.064,0.391,0.1,0.623,0.1c0.461,0,0.801-0.117,1.02-0.348
		c0.221-0.229,0.33-0.508,0.33-0.83c0-0.293-0.086-0.529-0.256-0.715c-0.168-0.184-0.379-0.348-0.633-0.49
		c-0.254-0.141-0.531-0.281-0.83-0.414c-0.301-0.135-0.578-0.299-0.83-0.49c-0.254-0.193-0.467-0.43-0.635-0.709
		c-0.168-0.281-0.254-0.641-0.254-1.078c0-0.4,0.072-0.754,0.213-1.062c0.143-0.307,0.334-0.564,0.572-0.771
		c0.238-0.209,0.514-0.365,0.824-0.473c0.311-0.109,0.641-0.162,0.986-0.162c0.416,0,0.777,0.049,1.09,0.15
		c0.311,0.1,0.578,0.238,0.801,0.414c-0.07,0.178-0.129,0.348-0.18,0.514s-0.113,0.375-0.189,0.629h-0.174
		C189.782,86.294,189.317,85.964,188.633,85.964z"/>
	<path fill="#808080" d="M194.567,93.361c0.131-0.494,0.252-0.873,0.357-1.135c0.107-0.262,0.217-0.432,0.324-0.508
		c0.105-0.076,0.236-0.115,0.391-0.115c0.094,0,0.188,0.016,0.281,0.047c0.1,0.029,0.188,0.074,0.268,0.133
		c0.08,0.057,0.146,0.131,0.195,0.225c0.051,0.092,0.076,0.195,0.076,0.311c0,0.068-0.018,0.15-0.055,0.242
		c-0.033,0.092-0.119,0.244-0.262,0.457c-0.143,0.211-0.354,0.512-0.629,0.904c-0.277,0.393-0.658,0.922-1.143,1.59l-0.287-0.113
		C194.276,94.537,194.436,93.859,194.567,93.361z"/>
	<path fill="#808080" d="M210.639,86.892c-0.016-0.494-0.037-0.992-0.068-1.492c0.131,0.016,0.273,0.029,0.426,0.039
		c0.154,0.014,0.328,0.018,0.518,0.018c0.193,0,0.367-0.004,0.521-0.018c0.152-0.01,0.295-0.023,0.426-0.039
		c-0.031,0.5-0.055,0.998-0.068,1.492c-0.016,0.496-0.023,1.064-0.023,1.701v1.568c0,0.639,0.008,1.205,0.023,1.701
		c0.014,0.496,0.037,0.982,0.068,1.459c-0.131-0.016-0.273-0.023-0.426-0.023c-0.154,0-0.328,0-0.521,0c-0.189,0-0.363,0-0.518,0
		c-0.152,0-0.295,0.008-0.426,0.023c0.031-0.477,0.053-0.963,0.068-1.459s0.023-1.062,0.023-1.701v-1.568
		C210.663,87.957,210.655,87.388,210.639,86.892z"/>
	<path fill="#808080" d="M220.303,86.357c-0.016-0.361-0.027-0.682-0.035-0.957c0.215,0.037,0.389,0.057,0.52,0.057
		s0.305-0.02,0.518-0.057c0.838,0.93,1.668,1.844,2.486,2.744c0.818,0.898,1.658,1.814,2.52,2.746v-1.006v-1.117
		c0-0.377-0.002-0.748-0.006-1.113s-0.008-0.701-0.012-1.01c-0.006-0.307-0.012-0.57-0.023-0.795
		c-0.012-0.223-0.023-0.373-0.039-0.449c0.215,0.037,0.387,0.057,0.52,0.057c0.129,0,0.301-0.02,0.518-0.057
		c-0.037,0.699-0.07,1.332-0.092,1.896c-0.023,0.564-0.043,1.098-0.059,1.596c-0.016,0.502-0.025,0.996-0.029,1.482
		c-0.004,0.49-0.006,1.01-0.006,1.562v1.385c-0.154-0.016-0.311-0.023-0.473-0.023c-0.168,0-0.32,0.008-0.449,0.023
		c-1.584-1.846-3.262-3.701-5.037-5.57c-0.01,0.225-0.016,0.447-0.02,0.67s-0.006,0.447-0.006,0.68v1.338
		c0,0.461,0.002,0.854,0.006,1.176s0.01,0.596,0.02,0.818c0.008,0.223,0.014,0.406,0.02,0.549c0.008,0.141,0.018,0.256,0.023,0.34
		c-0.09-0.016-0.184-0.023-0.275-0.023s-0.182,0-0.266,0c-0.176,0-0.352,0.008-0.529,0.023c0.016-0.062,0.035-0.281,0.059-0.658
		c0.021-0.375,0.045-0.836,0.074-1.379c0.025-0.541,0.049-1.129,0.068-1.762c0.02-0.635,0.029-1.244,0.029-1.828
		C220.327,87.164,220.319,86.718,220.303,86.357z"/>
	<path fill="#808080" d="M241.036,92.509c-0.047,0.164-0.076,0.328-0.092,0.49c-0.623,0.314-1.408,0.473-2.354,0.473
		c-0.668,0-1.266-0.096-1.791-0.283c-0.527-0.188-0.975-0.453-1.34-0.797c-0.363-0.342-0.643-0.746-0.836-1.215
		c-0.191-0.469-0.287-0.977-0.287-1.521c0-0.801,0.125-1.479,0.375-2.037c0.248-0.557,0.584-1.01,1.002-1.359
		c0.42-0.35,0.906-0.605,1.459-0.768c0.555-0.162,1.133-0.242,1.742-0.242c0.199,0,0.41,0.016,0.633,0.047
		c0.225,0.029,0.439,0.07,0.646,0.119c0.207,0.051,0.406,0.109,0.594,0.182c0.189,0.068,0.348,0.141,0.477,0.217
		c-0.076,0.193-0.135,0.387-0.176,0.584c-0.043,0.195-0.072,0.393-0.088,0.594h-0.16c-0.293-0.371-0.592-0.633-0.9-0.791
		c-0.307-0.156-0.668-0.236-1.084-0.236c-0.307,0-0.615,0.068-0.928,0.207s-0.596,0.35-0.848,0.635
		c-0.254,0.285-0.459,0.646-0.617,1.09c-0.158,0.441-0.236,0.971-0.236,1.586c0,0.592,0.08,1.098,0.242,1.516
		c0.16,0.418,0.371,0.762,0.629,1.025c0.256,0.266,0.549,0.461,0.877,0.584c0.326,0.123,0.654,0.186,0.984,0.186
		c0.186,0,0.375-0.023,0.566-0.064c0.191-0.043,0.381-0.1,0.564-0.174c0.184-0.072,0.359-0.164,0.525-0.271
		c0.162-0.107,0.309-0.227,0.432-0.357l0.15,0.094C241.135,92.179,241.081,92.343,241.036,92.509z"/>
	<path fill="#808080" d="M245.034,91.892c0.186-0.184,0.406-0.277,0.668-0.277s0.484,0.094,0.67,0.277
		c0.184,0.184,0.275,0.406,0.275,0.668s-0.092,0.479-0.275,0.652c-0.186,0.172-0.408,0.26-0.67,0.26s-0.482-0.088-0.668-0.26
		c-0.186-0.174-0.277-0.391-0.277-0.652S244.848,92.076,245.034,91.892z"/>
</g>
</svg>
